<?xml version="1.0" encoding="UTF-8"?>
<svg version="1.1" xmlns="http://www.w3.org/2000/svg" width="321" height="157">
<path d="M0 0 C105.93 0 211.86 0 321 0 C321 51.81 321 103.62 321 157 C215.07 157 109.14 157 0 157 C0 105.19 0 53.38 0 0 Z " fill="#FEFEFE" transform="translate(0,0)"/>
<path d="M0 0 C3.63 0 7.26 0 11 0 C11 8.91 11 17.82 11 27 C11.66 27 12.32 27 13 27 C13 26.34 13 25.68 13 25 C19.94065099 21.72136868 28.76452718 21.4960201 35.9921875 24.0625 C42.69732098 27.81248347 47.62754969 32.8573621 50.06005859 40.19970703 C50.9962474 43.98482781 51.22986968 47.13966046 51.1953125 51.02734375 C51.18564453 52.95610352 51.18564453 52.95610352 51.17578125 54.92382812 C51.15907601 56.26172154 51.14214619 57.59961217 51.125 58.9375 C51.11495322 60.30272783 51.10583036 61.6679628 51.09765625 63.03320312 C51.07417605 66.35565199 51.04133359 69.67773321 51 73 C50.01 73 49.02 73 48 73 C48.20625 73.5775 48.4125 74.155 48.625 74.75 C49.08661261 77.51967567 48.42944945 78.64561267 47 81 C47.99 82.175625 47.99 82.175625 49 83.375 C51 86 51 86 51 88 C47.04 87.67 43.08 87.34 39 87 C39 87.66 39 88.32 39 89 C39.61488281 88.97679688 40.22976562 88.95359375 40.86328125 88.9296875 C41.67152344 88.91164063 42.47976562 88.89359375 43.3125 88.875 C44.51326172 88.84019531 44.51326172 88.84019531 45.73828125 88.8046875 C48 89 48 89 51 91 C50.6875 92.875 50.6875 92.875 50 95 C45.95718377 97.69521082 42.7453161 97.65538457 38 97 C34.875 95.4375 34.875 95.4375 33 93 C33.1875 89.25 33.1875 89.25 34 86 C31.525 86.495 31.525 86.495 29 87 C28.67 90.3 28.34 93.6 28 97 C26.35 96.67 24.7 96.34 23 96 C22.67 95.01 22.34 94.02 22 93 C20.35 93 18.7 93 17 93 C17 94.32 17 95.64 17 97 C13.33333333 97 9.66666667 97 6 97 C6 96.34 6 95.68 6 95 C5.360625 95.350625 4.72125 95.70125 4.0625 96.0625 C-0.05401805 97.32265859 -3.84827161 97.15844107 -8 96 C-9.7734375 94.63671875 -9.7734375 94.63671875 -11 93 C-11 92.01 -11 91.02 -11 90 C-14.28976808 88.90341064 -15.71303767 89.20046862 -19 90 C-19.33 92.31 -19.66 94.62 -20 97 C-21.65 97 -23.3 97 -25 97 C-25.33 95.68 -25.66 94.36 -26 93 C-27.65 93 -29.3 93 -31 93 C-31 94.32 -31 95.64 -31 97 C-32.98 97 -34.96 97 -37 97 C-37.33 96.34 -37.66 95.68 -38 95 C-40.32156597 94.59270772 -42.6568787 94.25561323 -45 94 C-45 94.99 -45 95.98 -45 97 C-46.485 97.495 -46.485 97.495 -48 98 C-48 98.66 -48 99.32 -48 100 C-52.87781168 100.84831507 -56.99822335 101 -62 101 C-64.31 96.05 -66.62 91.1 -69 86 C-69.99 86 -70.98 86 -72 86 C-72.0825 87.0725 -72.165 88.145 -72.25 89.25 C-73 93 -73 93 -74.5 95.4375 C-79.01059192 98.25661995 -83.98603635 97.32881039 -89.0625 96.5 C-89.701875 96.335 -90.34125 96.17 -91 96 C-91.495 97.485 -91.495 97.485 -92 99 C-92.66 99 -93.32 99 -94 99 C-94.33 98.01 -94.66 97.02 -95 96 C-95.33 96.33 -95.66 96.66 -96 97 C-98.69082872 96.82364548 -101.32851446 96.38164079 -104 96 C-104.33 97.65 -104.66 99.3 -105 101 C-105.66 100.01 -106.32 99.02 -107 98 C-110.08365871 97.7497843 -110.08365871 97.7497843 -113 98 C-113.18638519 90.04756535 -113.30868486 82.69561619 -111 75 C-113.63523138 72.36476862 -118.29171534 73.37082847 -122 73 C-122 54.52 -122 36.04 -122 17 C-130.91 17 -139.82 17 -149 17 C-149 13.37 -149 9.74 -149 6 C-100.16 5.67 -51.32 5.34 -1 5 C-0.67 3.35 -0.34 1.7 0 0 Z " fill="#F7FBFA" transform="translate(208,27)"/>
<path d="M0 0 C0 16.83 0 33.66 0 51 C-5.28 51 -10.56 51 -16 51 C-18.475 52.98 -18.475 52.98 -21 55 C-24.72851342 56.24283781 -28.12746761 56.5280726 -32 56 C-37.30159123 53.29918937 -39.41692862 50.16614277 -42 45 C-42.12803176 39.83300396 -41.87440749 36.07619383 -38.5625 32 C-37.716875 31.34 -36.87125 30.68 -36 30 C-35.34 29.34 -34.68 28.68 -34 28 C-29.11869532 27.22965753 -24.08389793 26.86963274 -19.65234375 29.2734375 C-17.88559558 30.76084356 -16.36866822 32.13976785 -15 34 C-15 34.66 -15 35.32 -15 36 C-11.04 36 -7.08 36 -3 36 C-6.77853882 28.05537991 -9.92253319 22.84781146 -18 19 C-24.50409857 16.82746915 -33.16780886 16.72476745 -39.4375 19.5625 C-44.97195511 22.86211171 -49.12395438 27.80904945 -51 34 C-51.66 34 -52.32 34 -53 34 C-53.24492187 33.41992188 -53.48984375 32.83984375 -53.7421875 32.2421875 C-57.05990942 25.30929272 -61.20504331 22.36741217 -68 19 C-68.66 18.67 -69.32 18.34 -70 18 C-78.6187685 17.14889661 -85.74439461 17.14105341 -93.04296875 22.28515625 C-97.70334337 26.36879788 -100.59716291 31.64614705 -101.3359375 37.796875 C-101.4477187 46.24753373 -99.72690506 51.7685956 -95.1875 58.8125 C-88.16641058 65.83358942 -80.77408449 66.1276677 -71.3125 66.328125 C-68 67 -68 67 -65.5625 69.546875 C-65.046875 70.35640625 -64.53125 71.1659375 -64 72 C-66.64 72 -69.28 72 -72 72 C-71.67 72.99 -71.34 73.98 -71 75 C-73.97 74.67 -76.94 74.34 -80 74 C-80 74.66 -80 75.32 -80 76 C-79.34 76.33 -78.68 76.66 -78 77 C-79.258125 77.103125 -80.51625 77.20625 -81.8125 77.3125 C-84.31797458 77.64065065 -85.81117604 77.88788577 -88 79.1875 C-89.47416733 81.85942829 -89.24988592 84.00136894 -89 87 C-88.67 87.99 -88.34 88.98 -88 90 C-88.99 90 -89.98 90 -91 90 C-91.495 91.485 -91.495 91.485 -92 93 C-92.66 93 -93.32 93 -94 93 C-94.33 92.01 -94.66 91.02 -95 90 C-95.33 90.33 -95.66 90.66 -96 91 C-98.69082872 90.82364548 -101.32851446 90.38164079 -104 90 C-104.33 91.65 -104.66 93.3 -105 95 C-105.66 94.01 -106.32 93.02 -107 92 C-110.08365871 91.7497843 -110.08365871 91.7497843 -113 92 C-113.18638519 84.04756535 -113.30868486 76.69561619 -111 69 C-113.63523138 66.36476862 -118.29171534 67.37082847 -122 67 C-122 48.52 -122 30.04 -122 11 C-130.91 11 -139.82 11 -149 11 C-149 7.37 -149 3.74 -149 0 C-130.01582138 -0.15385088 -111.03160594 -0.30188556 -92.047328 -0.4429636 C-83.23294395 -0.50860217 -74.41858231 -0.5761563 -65.60424805 -0.64819336 C-57.92321709 -0.71096342 -50.24216841 -0.77016649 -42.56107694 -0.82505554 C-38.49262314 -0.85425408 -34.42420094 -0.88525956 -30.35579491 -0.92053413 C-26.52853085 -0.95366162 -22.70126138 -0.98202904 -18.87393379 -1.00670624 C-17.4674176 -1.01662127 -16.06091256 -1.02829277 -14.65442657 -1.04183006 C-12.73748597 -1.0600206 -10.82048381 -1.07134243 -8.90348816 -1.08229065 C-7.82959933 -1.09058679 -6.75571051 -1.09888292 -5.64927959 -1.10743046 C-3 -1 -3 -1 0 0 Z " fill="#F6FAFB" transform="translate(208,33)"/>
<path d="M0 0 C3.63 0 7.26 0 11 0 C11 8.91 11 17.82 11 27 C11.66 27 12.32 27 13 27 C13 26.34 13 25.68 13 25 C19.94065099 21.72136868 28.76452718 21.4960201 35.9921875 24.0625 C42.69732098 27.81248347 47.62754969 32.8573621 50.06005859 40.19970703 C50.9962474 43.98482781 51.22986968 47.13966046 51.1953125 51.02734375 C51.18886719 52.31318359 51.18242187 53.59902344 51.17578125 54.92382812 C51.15907601 56.26172154 51.14214619 57.59961217 51.125 58.9375 C51.11495322 60.30272783 51.10583036 61.6679628 51.09765625 63.03320312 C51.07417605 66.35565199 51.04133359 69.67773321 51 73 C50.01 73 49.02 73 48 73 C48.309375 73.86625 48.309375 73.86625 48.625 74.75 C49.08661261 77.51967567 48.42944945 78.64561267 47 81 C47.99 82.175625 47.99 82.175625 49 83.375 C51 86 51 86 51 88 C47.04 87.67 43.08 87.34 39 87 C39 87.66 39 88.32 39 89 C39.61488281 88.97679688 40.22976562 88.95359375 40.86328125 88.9296875 C41.67152344 88.91164063 42.47976562 88.89359375 43.3125 88.875 C44.51326172 88.84019531 44.51326172 88.84019531 45.73828125 88.8046875 C48 89 48 89 51 91 C50.6875 92.875 50.6875 92.875 50 95 C45.95718377 97.69521082 42.7453161 97.65538457 38 97 C34.875 95.4375 34.875 95.4375 33 93 C33.1875 89.25 33.1875 89.25 34 86 C32.35 86.33 30.7 86.66 29 87 C28.67 90.3 28.34 93.6 28 97 C26.35 96.67 24.7 96.34 23 96 C22.67 95.01 22.34 94.02 22 93 C20.35 93 18.7 93 17 93 C17 94.32 17 95.64 17 97 C13.33333333 97 9.66666667 97 6 97 C6.02320313 96.30132812 6.04640625 95.60265625 6.0703125 94.8828125 C6.08835938 93.97273438 6.10640625 93.06265625 6.125 92.125 C6.14820313 91.22007813 6.17140625 90.31515625 6.1953125 89.3828125 C6.24324836 86.81193006 6.24324836 86.81193006 4 85 C1.46609316 84.75632658 1.46609316 84.75632658 -1.375 84.875 C-2.80972656 84.90207031 -2.80972656 84.90207031 -4.2734375 84.9296875 C-5.17320312 84.95289062 -6.07296875 84.97609375 -7 85 C-11 85 -11 85 -13 84 C-16.60349589 83.8012778 -20.20516258 83.68140398 -23.8125 83.57421875 C-24.864375 83.38472656 -25.91625 83.19523437 -27 83 C-28.3046875 81.00390625 -28.3046875 81.00390625 -29 79 C-31.05000871 78.19471111 -31.05000871 78.19471111 -33 78 C-33 77.34 -33 76.68 -33 76 C-35.31 76 -37.62 76 -40 76 C-39.67 75.01 -39.34 74.02 -39 73 C-38.0409375 73.2784375 -38.0409375 73.2784375 -37.0625 73.5625 C-36.381875 73.706875 -35.70125 73.85125 -35 74 C-34.505 73.505 -34.505 73.505 -34 73 C-31.81620888 72.70072876 -29.62764822 72.43601099 -27.4375 72.1875 C-18.43797249 70.92665249 -12.99756278 68.87409951 -7.2265625 61.78125 C-5.94794888 59.92440984 -4.95683679 58.03886718 -4 56 C-2.68 56.33 -1.36 56.66 0 57 C0 38.19 0 19.38 0 0 Z " fill="#FAFCFC" transform="translate(208,27)"/>
<path d="M0 0 C48.18 0 96.36 0 146 0 C146 3.3 146 6.6 146 10 C110.69 10 75.38 10 39 10 C39 28.48 39 46.96 39 66 C35.04 66 31.08 66 27 66 C27 47.52 27 29.04 27 10 C18.09 10 9.18 10 0 10 C0 6.7 0 3.4 0 0 Z " fill="#6AD7D8" transform="translate(59,34)"/>
<path d="M0 0 C7.62971239 3.99994356 12.06635168 8.50158591 14.7109375 16.83203125 C14.7109375 20.79203125 14.7109375 24.75203125 14.7109375 28.83203125 C2.8309375 28.83203125 -9.0490625 28.83203125 -21.2890625 28.83203125 C-22.2890625 26.83203125 -22.2890625 26.83203125 -21.2890625 17.83203125 C-13.3690625 17.83203125 -5.4490625 17.83203125 2.7109375 17.83203125 C-1.54159978 12.25765849 -1.54159978 12.25765849 -7.65625 10.49609375 C-13.37429007 10.40702771 -16.85143298 10.83816468 -21.2890625 14.83203125 C-23.65549676 17.84385667 -23.6483075 21.03356021 -23.54296875 24.8046875 C-23.04128856 28.81041089 -21.31830365 31.68403151 -18.6640625 34.64453125 C-14.98753945 36.48279278 -11.38486912 36.96690183 -7.2890625 36.83203125 C-3.88161699 35.5310066 -1.85233272 34.39530147 0.7109375 31.83203125 C3.75 31.63671875 3.75 31.63671875 7.3359375 31.70703125 C8.52445313 31.72507813 9.71296875 31.743125 10.9375 31.76171875 C12.31035156 31.79652344 12.31035156 31.79652344 13.7109375 31.83203125 C11.39320616 38.93008349 7.26368855 43.25001011 0.76171875 46.9375 C-5.73301951 49.7435431 -12.84698021 49.8794824 -19.5390625 47.64453125 C-26.79817517 44.51257538 -31.19288226 39.23400975 -34.5390625 32.20703125 C-36.20441592 24.71294088 -36.46672875 17.27442571 -32.49609375 10.51171875 C-24.60954588 -0.46308897 -12.90404533 -4.58231538 0 0 Z " fill="#52CCDF" transform="translate(141.2890625,51.16796875)"/>
<path d="M0 0 C4.785 -0.020625 9.57 -0.04125 14.5 -0.0625 C15.99337891 -0.071604 17.48675781 -0.08070801 19.02539062 -0.09008789 C25.44325896 -0.10346564 31.6603331 -0.03754858 38 1 C38 1.66 38 2.32 38 3 C40.64 3 43.28 3 46 3 C46 3.33 46 3.66 46 4 C44.22496094 4.12955078 44.22496094 4.12955078 42.4140625 4.26171875 C31.82407323 5.15458043 23.62249037 6.47756209 15.125 13.3125 C10.08478092 19.68689471 8.3186093 24.80673446 8.609375 33.03125 C9.46273095 39.51675524 12.36845672 45.36845672 17 50 C24.17672471 54.95815876 30.16124506 55.14748401 38.6875 55.328125 C42 56 42 56 44.4375 58.546875 C44.953125 59.35640625 45.46875 60.1659375 46 61 C43.36 61 40.72 61 38 61 C38.33 61.99 38.66 62.98 39 64 C36.03 63.67 33.06 63.34 30 63 C30 63.66 30 64.32 30 65 C30.99 65.495 30.99 65.495 32 66 C30.741875 66.103125 29.48375 66.20625 28.1875 66.3125 C25.68202542 66.64065065 24.18882396 66.88788577 22 68.1875 C20.52583267 70.85942829 20.75011408 73.00136894 21 76 C21.33 76.99 21.66 77.98 22 79 C21.01 79 20.02 79 19 79 C18.67 79.99 18.34 80.98 18 82 C17.34 82 16.68 82 16 82 C15.67 81.01 15.34 80.02 15 79 C14.67 79.33 14.34 79.66 14 80 C11.30917128 79.82364548 8.67148554 79.38164079 6 79 C5.67 80.65 5.34 82.3 5 84 C4.34 83.01 3.68 82.02 3 81 C-0.08365871 80.7497843 -0.08365871 80.7497843 -3 81 C-3.18667307 73.03528223 -3.26897018 65.7144986 -1 58 C-1.33 57.34 -1.66 56.68 -2 56 C-1.34 56 -0.68 56 0 56 C0 37.52 0 19.04 0 0 Z " fill="#FAFCFC" transform="translate(98,44)"/>
<path d="M0 0 C3.63 0 7.26 0 11 0 C11 8.91 11 17.82 11 27 C11.66 27 12.32 27 13 27 C13 26.34 13 25.68 13 25 C19.94065099 21.72136868 28.76452718 21.4960201 35.9921875 24.0625 C42.69732098 27.81248347 47.62754969 32.8573621 50.06005859 40.19970703 C50.9962474 43.98482781 51.22986968 47.13966046 51.1953125 51.02734375 C51.18886719 52.31318359 51.18242187 53.59902344 51.17578125 54.92382812 C51.15907601 56.26172154 51.14214619 57.59961217 51.125 58.9375 C51.11495322 60.30272783 51.10583036 61.6679628 51.09765625 63.03320312 C51.07417605 66.35565199 51.04133359 69.67773321 51 73 C47.37 73 43.74 73 40 73 C39.9906543 72.1529248 39.98130859 71.30584961 39.97167969 70.43310547 C39.92747388 67.26805648 39.86577473 64.10395188 39.79248047 60.93945312 C39.76438377 59.57401836 39.74311323 58.20842436 39.72900391 56.84277344 C39.70742018 54.87145962 39.6586454 52.90050369 39.609375 50.9296875 C39.58842773 49.74616699 39.56748047 48.56264648 39.54589844 47.34326172 C38.75493834 42.49916176 36.52181141 39.34277477 32.875 36.125 C27.66123929 34.08483276 22.31282294 34.16344702 17.0625 36.0625 C12.31044627 40.52655047 11.79718765 45.55397875 11.48828125 51.80859375 C11.41563536 54.35119987 11.35743369 56.89425321 11.3125 59.4375 C11.27833984 60.74138672 11.24417969 62.04527344 11.20898438 63.38867188 C11.12683847 66.59236198 11.0575759 69.79578979 11 73 C7.37 73 3.74 73 0 73 C0 48.91 0 24.82 0 0 Z " fill="#34AFF1" transform="translate(208,27)"/>
<path d="M0 0 C6.30849161 3.68226933 10.2679724 8.12567486 12.7734375 15.03515625 C12.7734375 15.69515625 12.7734375 16.35515625 12.7734375 17.03515625 C8.73454448 17.32092698 4.80381392 17.48178007 0.7734375 17.03515625 C-1.7890625 14.66015625 -1.7890625 14.66015625 -3.2265625 12.03515625 C-7.894778 8.92301258 -12.76448801 9.31180044 -18.2265625 10.03515625 C-22.07001011 12.72556958 -24.01338797 15.51332392 -25.2265625 20.03515625 C-25.74325605 24.89207564 -24.89519865 27.94324748 -22.2265625 32.03515625 C-18.43044873 35.38986144 -15.39250593 36.68436026 -10.2578125 36.4375 C-6.48640006 35.69047023 -2.95934369 33.76793744 -0.2265625 31.03515625 C1.79307949 30.96271572 3.81510874 30.95138437 5.8359375 30.97265625 C7.49302734 30.98619141 7.49302734 30.98619141 9.18359375 31 C10.03824219 31.01160156 10.89289063 31.02320313 11.7734375 31.03515625 C9.41103678 37.59738047 6.63777108 42.09999385 0.25390625 45.296875 C-6.56463079 48.0147534 -12.66175936 49.56144636 -19.76171875 47.1875 C-25.72753848 44.53302516 -31.50211343 41.17401228 -34.2265625 35.03515625 C-34.93138551 30.0278705 -34.5513666 25.00960968 -34.25097656 19.98339844 C-34.16477229 17.79123294 -34.16477229 17.79123294 -34.796875 14.69921875 C-35.2265625 12.03515625 -35.2265625 12.03515625 -33.7265625 9.03515625 C-25.06622181 -1.35725257 -13.13783534 -5.95914472 0 0 Z " fill="#4AC4E4" transform="translate(192.2265625,51.96484375)"/>
<path d="M0 0 C30.69 0 61.38 0 93 0 C93 2.97 93 5.94 93 9 C58.02 9 23.04 9 -13 9 C-12.01 8.67 -11.02 8.34 -10 8 C-10 7.34 -10 6.68 -10 6 C-11.98 6 -13.96 6 -16 6 C-16 5.67 -16 5.34 -16 5 C-10.72 5 -5.44 5 0 5 C0 3.35 0 1.7 0 0 Z " fill="#5FD9D2" transform="translate(112,34)"/>
<path d="M0 0 C0.99 0 1.98 0 3 0 C3 0.66 3 1.32 3 2 C3.99 2.33 4.98 2.66 6 3 C6 3.99 6 4.98 6 6 C6.66 6 7.32 6 8 6 C8 4.35 8 2.7 8 1 C10.7932485 1.38795118 12.57758265 1.63792799 14.75 3.5 C18.24504619 5.83003079 21.84575623 6.13679486 26 6 C29.40744551 4.69897535 31.43672978 3.56327022 34 1 C37.0390625 0.8046875 37.0390625 0.8046875 40.625 0.875 C42.40777344 0.90207031 42.40777344 0.90207031 44.2265625 0.9296875 C45.14179688 0.95289062 46.05703125 0.97609375 47 1 C44.68226866 8.09805224 40.55275105 12.41797886 34.05078125 16.10546875 C27.55604299 18.91151185 20.44208229 19.04745115 13.75 16.8125 C7.54498968 14.13533829 3.25808713 9.88961904 0 4 C0 2.68 0 1.36 0 0 Z " fill="#46BEEB" transform="translate(108,82)"/>
<path d="M0 0 C-0.66 0 -1.32 0 -2 0 C-2 0.99 -2 1.98 -2 3 C3.94 3.33 9.88 3.66 16 4 C16.66 5.65 17.32 7.3 18 9 C14.04 8.67 10.08 8.34 6 8 C6 8.66 6 9.32 6 10 C6.61488281 9.97679688 7.22976562 9.95359375 7.86328125 9.9296875 C8.67152344 9.91164063 9.47976562 9.89359375 10.3125 9.875 C11.11300781 9.85179688 11.91351563 9.82859375 12.73828125 9.8046875 C15 10 15 10 18 12 C17.6875 13.875 17.6875 13.875 17 16 C12.95718377 18.69521082 9.7453161 18.65538457 5 18 C1.875 16.4375 1.875 16.4375 0 14 C0.1875 10.25 0.1875 10.25 1 7 C-0.65 7.33 -2.3 7.66 -4 8 C-4.33 11.3 -4.66 14.6 -5 18 C-6.65 17.67 -8.3 17.34 -10 17 C-10.33 16.01 -10.66 15.02 -11 14 C-12.65 14 -14.3 14 -16 14 C-16 15.32 -16 16.64 -16 18 C-17.65 18 -19.3 18 -21 18 C-21 16.68 -21 15.36 -21 14 C-21.66 14 -22.32 14 -23 14 C-23.33 10.7 -23.66 7.4 -24 4 C-22.68 3.34 -21.36 2.68 -20 2 C-19.01 2.33 -18.02 2.66 -17 3 C-15.27204648 3.06802967 -13.54164635 3.08495645 -11.8125 3.0625 C-10.91144531 3.05347656 -10.01039063 3.04445313 -9.08203125 3.03515625 C-8.05142578 3.01775391 -8.05142578 3.01775391 -7 3 C-7.66 2.34 -8.32 1.68 -9 1 C-5.57367167 -0.61798838 -3.61944899 -1.34053666 0 0 Z " fill="#E3F1FA" transform="translate(241,106)"/>
<path d="M0 0 C0.33 0.66 0.66 1.32 1 2 C3.31 2 5.62 2 8 2 C7.67 3.32 7.34 4.64 7 6 C8.71509766 6.07347656 8.71509766 6.07347656 10.46484375 6.1484375 C11.95575473 6.22345189 13.44663892 6.29900028 14.9375 6.375 C16.06961914 6.42140625 16.06961914 6.42140625 17.22460938 6.46875 C19.15507395 6.5726315 21.07942081 6.77895614 23 7 C23.495 7.99 23.495 7.99 24 9 C24.99 8.67 25.98 8.34 27 8 C28.82962436 7.85671616 30.66501237 7.77959657 32.5 7.75 C33.4590625 7.72421875 34.418125 7.6984375 35.40625 7.671875 C38 8 38 8 39.8203125 9.328125 C41.65209608 11.92416266 41.38525232 13.91798147 41 17 C39.40359854 19.10845476 38.42351218 19.89258749 35.84375 20.546875 C35.0703125 20.61390625 34.296875 20.6809375 33.5 20.75 C32.7265625 20.82734375 31.953125 20.9046875 31.15625 20.984375 C28.32107121 21.00491977 26.51371716 20.41858435 24.3125 18.625 C23 17 23 17 23 14 C19.71023192 12.90341064 18.28696233 13.20046862 15 14 C14.67 16.31 14.34 18.62 14 21 C12.35 21 10.7 21 9 21 C9 18.03 9 15.06 9 12 C6.36 12.33 3.72 12.66 1 13 C0.67 11.02 0.34 9.04 0 7 C-3.3 7 -6.6 7 -10 7 C-8.68 6.67 -7.36 6.34 -6 6 C-5.938125 5.38125 -5.87625 4.7625 -5.8125 4.125 C-5 2 -5 2 -2.4375 0.75 C-1.633125 0.5025 -0.82875 0.255 0 0 Z " fill="#FAFBF8" transform="translate(174,103)"/>
<path d="M0 0 C1.65322266 0.01740234 1.65322266 0.01740234 3.33984375 0.03515625 C4.99693359 0.04869141 4.99693359 0.04869141 6.6875 0.0625 C7.54214844 0.07410156 8.39679688 0.08570312 9.27734375 0.09765625 C6.91494303 6.65988047 4.14167733 11.16249385 -2.2421875 14.359375 C-9.08826627 17.08823157 -15.33350992 18.77642463 -22.3984375 16.07421875 C-26.37815036 14.17363229 -29.73331558 12.38593099 -32.72265625 9.09765625 C-32.39265625 8.10765625 -32.06265625 7.11765625 -31.72265625 6.09765625 C-30.73265625 6.09765625 -29.74265625 6.09765625 -28.72265625 6.09765625 C-29.38265625 5.43765625 -30.04265625 4.77765625 -30.72265625 4.09765625 C-30.39265625 3.10765625 -30.06265625 2.11765625 -29.72265625 1.09765625 C-26.1354645 0.67563369 -24.92070424 0.95682212 -21.91015625 3.09765625 C-18.08445885 5.49809384 -15.08224718 5.96119061 -10.72265625 5.09765625 C-6.89293619 3.45529553 -4.08366489 0.14647292 0 0 Z " fill="#31ACF4" transform="translate(194.72265625,82.90234375)"/>
<path d="M0 0 C17.49 0 34.98 0 53 0 C53 1.65 53 3.3 53 5 C45.08 5 37.16 5 29 5 C29 6.98 29 8.96 29 11 C19.43 10.67 9.86 10.34 0 10 C0 6.7 0 3.4 0 0 Z " fill="#6FDED3" transform="translate(59,34)"/>
<path d="M0 0 C3.375 -0.1875 3.375 -0.1875 7 0 C10.20613909 4.80920863 10.12269772 9.14761675 10.09765625 14.83203125 C10.09443359 16.12431641 10.09121094 17.41660156 10.08789062 18.74804688 C10.07953665 20.10286526 10.07107172 21.45768297 10.0625 22.8125 C10.05748 24.18684735 10.05291797 25.56119645 10.04882812 26.93554688 C10.03705668 30.29040924 10.02061283 33.64518221 10 37 C6.37 37 2.74 37 -1 37 C-1.19268792 32.3739666 -1.37134034 27.74768184 -1.53710938 23.12060547 C-1.59544307 21.54721619 -1.65758355 19.97396318 -1.72363281 18.40087891 C-1.81800832 16.13729671 -1.89860024 13.87357465 -1.9765625 11.609375 C-2.00875885 10.90818542 -2.0409552 10.20699585 -2.0741272 9.48455811 C-2.18715539 5.78425323 -2.061847 3.13851114 0 0 Z " fill="#26A0FA" transform="translate(249,63)"/>
<path d="M0 0 C4.5108365 2.25541825 5.71953804 3.43907608 8 8 C0.08 8 -7.84 8 -16 8 C-16 11.63 -16 15.26 -16 19 C-4.78 19 6.44 19 18 19 C18 19.99 18 20.98 18 22 C16.78763672 22.03867188 16.78763672 22.03867188 15.55078125 22.078125 C9.18370563 22.41606388 5.8959328 22.76567974 1 27 C-3.43198856 28.25795164 -6.94481947 28.3583632 -11.3125 26.875 C-15.20684715 24.15801362 -17.49528999 21.51413003 -19 17 C-19.38773716 12.26960665 -19.48117872 9.94453601 -17.3125 5.6875 C-12.30080267 -0.136905 -7.46795975 -1.08733494 0 0 Z " fill="#F5FAFB" transform="translate(136,61)"/>
<path d="M0 0 C1.70963408 0.00503311 3.41926963 0.00959276 5.12890625 0.01367188 C9.25264135 0.02451548 13.37630372 0.04167649 17.5 0.0625 C17.5 3.0325 17.5 6.0025 17.5 9.0625 C5.29 9.0625 -6.92 9.0625 -19.5 9.0625 C-19.5 8.4025 -19.5 7.7425 -19.5 7.0625 C-22.14 6.7325 -24.78 6.4025 -27.5 6.0625 C-27.5 5.0725 -27.5 4.0825 -27.5 3.0625 C-30.14 3.0625 -32.78 3.0625 -35.5 3.0625 C-35.5 2.4025 -35.5 1.7425 -35.5 1.0625 C-23.64602921 0.1504188 -11.88396883 -0.06188351 0 0 Z " fill="#54CDE0" transform="translate(187.5,33.9375)"/>
<path d="M0 0 C3.63 0 7.26 0 11 0 C10.67 8.25 10.34 16.5 10 25 C9.67 24.34 9.34 23.68 9 23 C8.01 23 7.02 23 6 23 C6 26.63 6 30.26 6 34 C5.67 34 5.34 34 5 34 C4.67 29.05 4.34 24.1 4 19 C2.4353039 25.96701525 1.67634273 32.4729486 1.5859375 39.6015625 C1.56657135 40.564039 1.5472052 41.5265155 1.5272522 42.51815796 C1.46808427 45.55368545 1.42132519 48.58925218 1.375 51.625 C1.33676228 53.69923412 1.29770731 55.77345334 1.2578125 57.84765625 C1.16243539 62.89831468 1.07817632 67.94904724 1 73 C0.67 73 0.34 73 0 73 C0 48.91 0 24.82 0 0 Z " fill="#4DC1EF" transform="translate(208,27)"/>
<path d="M0 0 C0 9.57 0 19.14 0 29 C-2.64 29 -5.28 29 -8 29 C-9.14982602 24.90996141 -9.11094256 20.96822949 -9.0625 16.75 C-9.05798828 16.00492188 -9.05347656 15.25984375 -9.04882812 14.4921875 C-9.03709246 12.6614236 -9.0191585 10.83070127 -9 9 C-8.34 8.67 -7.68 8.34 -7 8 C-6.67 9.32 -6.34 10.64 -6 12 C-5.67 8.37 -5.34 4.74 -5 1 C-2 0 -2 0 0 0 Z " fill="#27A5F7" transform="translate(219,71)"/>
<path d="M0 0 C4.41080354 -0.02490464 8.82156871 -0.04295604 13.23242188 -0.05493164 C14.72982497 -0.05992943 16.22722327 -0.0667299 17.72460938 -0.07543945 C19.88933505 -0.08770623 22.05399565 -0.09327397 24.21875 -0.09765625 C26.1668457 -0.10551147 26.1668457 -0.10551147 28.15429688 -0.11352539 C32.18086673 0.0053392 36.01415096 0.43973231 40 1 C40 1.99 40 2.98 40 4 C45.28 4 50.56 4 56 4 C56 4.33 56 4.66 56 5 C53.36 5 50.72 5 48 5 C48 5.66 48 6.32 48 7 C37.44 7 26.88 7 16 7 C16 5.68 16 4.36 16 3 C10.72 2.34 5.44 1.68 0 1 C0 0.67 0 0.34 0 0 Z " fill="#58D5D8" transform="translate(120,36)"/>
<path d="M0 0 C0.9590625 -0.01933594 1.918125 -0.03867188 2.90625 -0.05859375 C5.5 0.4375 5.5 0.4375 7.31640625 2.30859375 C8.80707228 4.98982472 9.02921258 6.41342811 8.5 9.4375 C7.0625 11.75 7.0625 11.75 4.5 13.4375 C0.14272661 14.22900471 -3.28168049 14.21009286 -7.0625 11.8125 C-8.91549639 8.75102771 -9.0244772 6.9589898 -8.5 3.4375 C-6.12159987 0.10930972 -3.95616076 0.00531742 0 0 Z " fill="#35B2F2" transform="translate(126.5,110.5625)"/>
<path d="M0 0 C0.9590625 -0.00773437 1.918125 -0.01546875 2.90625 -0.0234375 C5.5 0.375 5.5 0.375 7.3203125 1.7109375 C9.15626595 4.30072613 8.88476574 6.29687412 8.5 9.375 C6.90359854 11.48345476 5.92351218 12.26758749 3.34375 12.921875 C2.18359375 13.02242187 2.18359375 13.02242187 1 13.125 C0.2265625 13.20234375 -0.546875 13.2796875 -1.34375 13.359375 C-3.5 13.375 -3.5 13.375 -6.5 12.375 C-8.81282587 8.90576119 -8.92478586 7.45294425 -8.5 3.375 C-6.13144748 0.02282932 -3.95771735 -0.03191708 0 0 Z " fill="#34A1F0" transform="translate(206.5,110.625)"/>
<path d="M0 0 C0.99 0 1.98 0 3 0 C3 0.66 3 1.32 3 2 C3.99 2.33 4.98 2.66 6 3 C6 3.99 6 4.98 6 6 C6.66 6 7.32 6 8 6 C8 4.35 8 2.7 8 1 C11.8713588 1.53768872 13.97184125 2.577473 17 5 C17.99 5.33 18.98 5.66 20 6 C20 7.98 20 9.96 20 12 C21.65 12 23.3 12 25 12 C25 12.33 25 12.66 25 13 C11.80826942 15.63498944 11.80826942 15.63498944 7.80859375 14.23046875 C6.3125 13 6.3125 13 4 10 C3.21625 8.989375 2.4325 7.97875 1.625 6.9375 C0 4 0 4 0 0 Z " fill="#4EC5E3" transform="translate(108,82)"/>
<path d="M0 0 C12.21 0 24.42 0 37 0 C37 2.97 37 5.94 37 9 C24.79 9 12.58 9 0 9 C0 8.34 0 7.68 0 7 C-2.64 6.67 -5.28 6.34 -8 6 C-8 5.67 -8 5.34 -8 5 C5.86 5 19.72 5 34 5 C34.33 4.34 34.66 3.68 35 3 C35 3.99 35 4.98 35 6 C34.34 6 33.68 6 33 6 C33 6.66 33 7.32 33 8 C33.99 8 34.98 8 36 8 C36 5.69 36 3.38 36 1 C24.12 1 12.24 1 0 1 C0 0.67 0 0.34 0 0 Z " fill="#47C9DD" transform="translate(168,34)"/>
<path d="M0 0 C0.66 0 1.32 0 2 0 C2 1.98 2 3.96 2 6 C2.66 6 3.32 6 4 6 C4.33 4.35 4.66 2.7 5 1 C6.32 0.67 7.64 0.34 9 0 C8.98839844 0.80824219 8.97679688 1.61648437 8.96484375 2.44921875 C8.95582031 3.51785156 8.94679688 4.58648437 8.9375 5.6875 C8.92589844 6.74324219 8.91429688 7.79898438 8.90234375 8.88671875 C8.99134575 11.72410262 9.35060162 14.2438919 10 17 C9.01 17 8.02 17 7 17 C7 18.65 7 20.3 7 22 C6.34 22 5.68 22 5 22 C4.67 21.01 4.34 20.02 4 19 C3.34 18.67 2.68 18.34 2 18 C2 17.34 2 16.68 2 16 C0.68 16.33 -0.64 16.66 -2 17 C-3.75179535 11.74461396 -3.64761951 7.51111219 -1.5 2.5 C-1.005 1.675 -0.51 0.85 0 0 Z " fill="#56CFDC" transform="translate(109,66)"/>
<path d="M0 0 C2.475 0.99 2.475 0.99 5 2 C5.07347656 3.19496094 5.07347656 3.19496094 5.1484375 4.4140625 C5.70029395 12.38157314 5.70029395 12.38157314 8 20 C7.01 20 6.02 20 5 20 C4.67 20.99 4.34 21.98 4 23 C5.37168238 25.19038423 5.37168238 25.19038423 7 27 C6.236875 26.835 5.47375 26.67 4.6875 26.5 C1.96403764 25.90854604 1.96403764 25.90854604 -1 26 C-3.14965431 22.77551853 -3.22152284 22.20069035 -2.9765625 18.55078125 C-2.925 17.70322266 -2.8734375 16.85566406 -2.8203125 15.98242188 C-2.72363281 14.66081055 -2.72363281 14.66081055 -2.625 13.3125 C-2.56828125 12.41982422 -2.5115625 11.52714844 -2.453125 10.60742188 C-2.31173702 8.40412587 -2.16034022 6.20198461 -2 4 C-1.34 4 -0.68 4 0 4 C0.33 4.99 0.66 5.98 1 7 C0.67 4.69 0.34 2.38 0 0 Z " fill="#40BCE8" transform="translate(161,64)"/>
<path d="M0 0 C5.26371362 -0.50130606 7.9090934 0.68831371 12 4 C12 4.66 12 5.32 12 6 C12.66 6.33 13.32 6.66 14 7 C13.34 7 12.68 7 12 7 C12 7.66 12 8.32 12 9 C14.64 9 17.28 9 20 9 C20 9.99 20 10.98 20 12 C17.69 12.33 15.38 12.66 13 13 C13.763125 13.144375 14.52625 13.28875 15.3125 13.4375 C18 14 18 14 21 15 C20 16 20 16 16.0625 16.375 C9.74833656 16.32448669 3.82422602 13.63306661 -0.7890625 9.33203125 C-1.18867188 8.89246094 -1.58828125 8.45289062 -2 8 C-1.67 7.01 -1.34 6.02 -1 5 C-0.01 5 0.98 5 2 5 C1.34 4.34 0.68 3.68 0 3 C0 2.01 0 1.02 0 0 Z " fill="#38B2F0" transform="translate(164,84)"/>
<path d="M0 0 C1.875 0.8125 1.875 0.8125 4.875 2.8125 C4.875 3.8025 4.875 4.7925 4.875 5.8125 C5.638125 5.85375 6.40125 5.895 7.1875 5.9375 C9.875 6.8125 9.875 6.8125 11.6875 9.75 C12.875 12.8125 12.875 12.8125 12.875 14.8125 C10.91733719 14.89332094 8.95873272 14.95160778 7 15 C5.36417969 15.05220703 5.36417969 15.05220703 3.6953125 15.10546875 C2.76460937 15.00878906 1.83390625 14.91210938 0.875 14.8125 C-1.125 11.8125 -1.125 11.8125 -1.125 7.8125 C-2.115 7.4825 -3.105 7.1525 -4.125 6.8125 C-4.125 6.1525 -4.125 5.4925 -4.125 4.8125 C-5.115 5.3075 -5.115 5.3075 -6.125 5.8125 C-8.16555005 5.88315617 -10.20834257 5.89671976 -12.25 5.875 C-13.34570312 5.86597656 -14.44140625 5.85695313 -15.5703125 5.84765625 C-16.83488281 5.83025391 -16.83488281 5.83025391 -18.125 5.8125 C-18.125 5.4825 -18.125 5.1525 -18.125 4.8125 C-14.495 4.8125 -10.865 4.8125 -7.125 4.8125 C-7.125 4.1525 -7.125 3.4925 -7.125 2.8125 C-3.01973684 -0.26644737 -3.01973684 -0.26644737 0 0 Z " fill="#3FBBEB" transform="translate(192.125,54.1875)"/>
<path d="M0 0 C2.10353495 -0.0810206 4.20795952 -0.13919907 6.3125 -0.1875 C7.48425781 -0.22230469 8.65601563 -0.25710937 9.86328125 -0.29296875 C13 0 13 0 14.9375 1.1875 C16.41872349 3.71429302 16.09739191 5.31825666 15.6875 8.1875 C15.50767578 9.53908203 15.50767578 9.53908203 15.32421875 10.91796875 C15.21722656 11.60503906 15.11023438 12.29210937 15 13 C13.35 12.67 11.7 12.34 10 12 C9.67 11.01 9.34 10.02 9 9 C7.35 9 5.7 9 4 9 C4 9.99 4 10.98 4 12 C2.68 12 1.36 12 0 12 C0 8.04 0 4.08 0 0 Z " fill="#1697F3" transform="translate(221,111)"/>
<path d="M0 0 C6 0 6 0 8.375 1.875 C10 4 10 4 10 6 C10.66 6 11.32 6 12 6 C12 4.02 12 2.04 12 0 C13.32 0 14.64 0 16 0 C16 4.29 16 8.58 16 13 C14.35 13 12.7 13 11 13 C8.3125 10.0625 8.3125 10.0625 6 7 C5.34 6.67 4.68 6.34 4 6 C4 7.98 4 9.96 4 12 C2.68 12 1.36 12 0 12 C0 8.04 0 4.08 0 0 Z " fill="#35B9EC" transform="translate(96,111)"/>
<path d="M0 0 C3.25 -0.3125 3.25 -0.3125 7 0 C9.4375 2.5 9.4375 2.5 11 5 C11.33 3.35 11.66 1.7 12 0 C13.32 0 14.64 0 16 0 C16 3.96 16 7.92 16 12 C14.02 12 12.04 12 10 12 C8.125 10.125 8.125 10.125 7 8 C7 7.34 7 6.68 7 6 C6.34 6 5.68 6 5 6 C4.67 7.98 4.34 9.96 4 12 C2.68 12 1.36 12 0 12 C0 8.04 0 4.08 0 0 Z " fill="#52C6E1" transform="translate(72,111)"/>
<path d="M0 0 C16.17 0 32.34 0 49 0 C49 0.99 49 1.98 49 3 C32.83 3 16.66 3 0 3 C0 2.01 0 1.02 0 0 Z " fill="#64E0CB" transform="translate(63,34)"/>
<path d="M0 0 C1.60488281 -0.02126953 1.60488281 -0.02126953 3.2421875 -0.04296875 C6.125 0.1875 6.125 0.1875 9.125 2.1875 C9.125 2.8475 9.125 3.5075 9.125 4.1875 C5.165 3.8575 1.205 3.5275 -2.875 3.1875 C-2.875 3.8475 -2.875 4.5075 -2.875 5.1875 C-2.26011719 5.16429688 -1.64523438 5.14109375 -1.01171875 5.1171875 C-0.20347656 5.09914063 0.60476562 5.08109375 1.4375 5.0625 C2.23800781 5.03929688 3.03851563 5.01609375 3.86328125 4.9921875 C6.125 5.1875 6.125 5.1875 9.125 7.1875 C8.8125 9.0625 8.8125 9.0625 8.125 11.1875 C5.002998 13.26883467 4.19233011 13.4612822 0.625 13.4375 C-0.53515625 13.44523437 -0.53515625 13.44523437 -1.71875 13.453125 C-3.875 13.1875 -3.875 13.1875 -6.875 11.1875 C-6.875 10.5275 -6.875 9.8675 -6.875 9.1875 C-3.575 9.1875 -0.275 9.1875 3.125 9.1875 C3.455 8.5275 3.785 7.8675 4.125 7.1875 C3.49851563 7.19910156 2.87203125 7.21070312 2.2265625 7.22265625 C1.40929687 7.23167969 0.59203125 7.24070312 -0.25 7.25 C-1.06210938 7.26160156 -1.87421875 7.27320312 -2.7109375 7.28515625 C-4.875 7.1875 -4.875 7.1875 -6.875 6.1875 C-6.917721 4.52138095 -6.91563832 2.85367115 -6.875 1.1875 C-5.07595222 -0.61154778 -2.42436549 0.01453457 0 0 Z " fill="#219BF0" transform="translate(249.875,110.8125)"/>
<path d="M0 0 C1.98 0 3.96 0 6 0 C7.00508801 1.78881736 8.00392736 3.58114696 9 5.375 C9.8353125 6.87160156 9.8353125 6.87160156 10.6875 8.3984375 C12 11 12 11 12 13 C10.35 13 8.7 13 7 13 C6.67 12.34 6.34 11.68 6 11 C3.67843403 10.59270772 1.3431213 10.25561323 -1 10 C-1 10.99 -1 11.98 -1 13 C-2.65 13 -4.3 13 -6 13 C-4.58707905 8.1725201 -2.57025846 4.2837641 0 0 Z " fill="#34A6ED" transform="translate(164,111)"/>
<path d="M0 0 C1.98 0 3.96 0 6 0 C6.99 2.31 7.98 4.62 9 7 C10.32 4.69 11.64 2.38 13 0 C14.65 0 16.3 0 18 0 C14.37459283 10.18566775 14.37459283 10.18566775 12 13 C10.02 13 8.04 13 6 13 C4.02 8.71 2.04 4.42 0 0 Z " fill="#41B3EE" transform="translate(138,111)"/>
<path d="M0 0 C2.97 0 5.94 0 9 0 C8.67 0.66 8.34 1.32 8 2 C7.01 2.33 6.02 2.66 5 3 C6.32 3.33 7.64 3.66 9 4 C9 4.99 9 5.98 9 7 C9.99 6.67 10.98 6.34 12 6 C12 7.98 12 9.96 12 12 C11.34 12 10.68 12 10 12 C9.4225 11.195625 8.845 10.39125 8.25 9.5625 C5.540574 6.47676483 4.00592666 6.27313136 0 6 C0 9.96 0 13.92 0 18 C1.32 18 2.64 18 4 18 C4 16.02 4 14.04 4 12 C7.73639216 13.24546405 8.18756513 14.63404953 10 18 C9.34 18 8.68 18 8 18 C7.67 19.65 7.34 21.3 7 23 C6.34 22.01 5.68 21.02 5 20 C1.91634129 19.7497843 1.91634129 19.7497843 -1 20 C-1.02712351 17.60408962 -1.0468982 15.20849043 -1.0625 12.8125 C-1.07087891 12.13896484 -1.07925781 11.46542969 -1.08789062 10.77148438 C-1.10606538 7.04565869 -0.89299392 3.6211958 0 0 Z " fill="#F5FAF6" transform="translate(96,105)"/>
<path d="M0 0 C-0.04125 1.093125 -0.0825 2.18625 -0.125 3.3125 C-0.32074666 7.08892229 -0.32074666 7.08892229 2 10 C2.125 12.6875 2.125 12.6875 2 15 C1.34 15 0.68 15 0 15 C0 14.01 0 13.02 0 12 C-0.5775 12.185625 -1.155 12.37125 -1.75 12.5625 C-4.20692525 13.04023546 -5.64397534 12.75729364 -8 12 C-8 12.66 -8 13.32 -8 14 C-11.48624056 13.3543999 -14.12498789 12.07639763 -17 10 C-17 9.01 -17 8.02 -17 7 C-14.625 6.8125 -14.625 6.8125 -12 7 C-11.01 8.485 -11.01 8.485 -10 10 C-7.94074861 10.72382467 -7.94074861 10.72382467 -6 11 C-6.20625 10.278125 -6.4125 9.55625 -6.625 8.8125 C-7.06645111 5.50161669 -6.61121292 3.90018326 -5 1 C-2 0 -2 0 0 0 Z " fill="#F6FAF7" transform="translate(242,113)"/>
<path d="M0 0 C5.28 0 10.56 0 16 0 C16 1.32 16 2.64 16 4 C14.35 4 12.7 4 11 4 C11 6.97 11 9.94 11 13 C9.35 13 7.7 13 6 13 C6 10.03 6 7.06 6 4 C4.02 4 2.04 4 0 4 C0 2.68 0 1.36 0 0 Z " fill="#27A1F3" transform="translate(177,111)"/>
<path d="M0 0 C0.66 0 1.32 0 2 0 C2 0.99 2 1.98 2 3 C2.99 2.34 3.98 1.68 5 1 C7.54370117 0.68115234 7.54370117 0.68115234 10.54296875 0.5859375 C11.61611328 0.54726563 12.68925781 0.50859375 13.79492188 0.46875 C14.91447266 0.4378125 16.03402344 0.406875 17.1875 0.375 C18.88422852 0.31699219 18.88422852 0.31699219 20.61523438 0.2578125 C23.4099925 0.16347467 26.20474278 0.07788348 29 0 C29 1.98 29 3.96 29 6 C19.43 5.67 9.86 5.34 0 5 C0 3.35 0 1.7 0 0 Z " fill="#79E0D1" transform="translate(59,39)"/>
<path d="M0 0 C-0.99 0 -1.98 0 -3 0 C-3 0.66 -3 1.32 -3 2 C-4.32 2 -5.64 2 -7 2 C-7 3.32 -7 4.64 -7 6 C-6.34 6.33 -5.68 6.66 -5 7 C-5 7.33 -5 7.66 -5 8 C-3.68 8 -2.36 8 -1 8 C-1 7.34 -1 6.68 -1 6 C1.64 6 4.28 6 7 6 C7 6.33 7 6.66 7 7 C5.02 7.33 3.04 7.66 1 8 C4.3 8.33 7.6 8.66 11 9 C11 9.66 11 10.32 11 11 C10.16855469 10.98839844 9.33710938 10.97679687 8.48046875 10.96484375 C6.85044922 10.95130859 6.85044922 10.95130859 5.1875 10.9375 C3.56908203 10.92009766 3.56908203 10.92009766 1.91796875 10.90234375 C-1.06512169 10.86375234 -1.06512169 10.86375234 -4 12 C-5.65 10.35 -7.3 8.7 -9 7 C-9.33 7.99 -9.66 8.98 -10 10 C-10.99 10 -11.98 10 -13 10 C-13 9.34 -13 8.68 -13 8 C-13.66 8 -14.32 8 -15 8 C-13.65112238 3.95336715 -11.58532466 3.17931499 -8 1 C-7.29875 0.566875 -6.5975 0.13375 -5.875 -0.3125 C-3.54470702 -1.16694076 -2.30156558 -0.82198771 0 0 Z " fill="#6AD6DA" transform="translate(127,51)"/>
<path d="M0 0 C0.99 0 1.98 0 3 0 C4.16063604 4.25566547 3.76173392 7.6835078 3 12 C0.6875 11.8125 0.6875 11.8125 -2 11 C-3.8125 8.4375 -3.8125 8.4375 -5 6 C-3.35 6.33 -1.7 6.66 0 7 C0 6.34 0 5.68 0 5 C-2.64 5 -5.28 5 -8 5 C-8 4.01 -8 3.02 -8 2 C-5.36 2 -2.72 2 0 2 C0 1.34 0 0.68 0 0 Z " fill="#2FA2F2" transform="translate(233,112)"/>
<path d="M0 0 C0.9590625 -0.01933594 1.918125 -0.03867188 2.90625 -0.05859375 C5.5 0.4375 5.5 0.4375 7.33203125 2.29296875 C8.72714828 4.85457159 8.73957866 6.56255602 8.5 9.4375 C7.51 9.9325 7.51 9.9325 6.5 10.4375 C6.17 8.1275 5.84 5.8175 5.5 3.4375 C5.17 5.4175 4.84 7.3975 4.5 9.4375 C3.84 9.1075 3.18 8.7775 2.5 8.4375 C2.5 7.1175 2.5 5.7975 2.5 4.4375 C0.85 4.4375 -0.8 4.4375 -2.5 4.4375 C-3.16 5.7575 -3.82 7.0775 -4.5 8.4375 C-4.5 7.4475 -4.5 6.4575 -4.5 5.4375 C-5.49 5.4375 -6.48 5.4375 -7.5 5.4375 C-7.83 6.7575 -8.16 8.0775 -8.5 9.4375 C-8.86515367 3.96019489 -8.86515367 3.96019489 -7.33203125 1.765625 C-4.82895179 -0.04897418 -3.0678898 0.00412351 0 0 Z " fill="#48B8E6" transform="translate(126.5,110.5625)"/>
<path d="M0 0 C0.96808594 -0.01675781 1.93617188 -0.03351563 2.93359375 -0.05078125 C5.5625 0.3125 5.5625 0.3125 7.3984375 1.6328125 C9.1378753 4.14273953 8.76021797 6.34673052 8.5625 9.3125 C5.40134224 7.94266497 4.5697908 7.3234362 2.5625 4.3125 C-0.9375 4.14583333 -0.9375 4.14583333 -4.4375 4.3125 C-5.0975 3.9825 -5.7575 3.6525 -6.4375 3.3125 C-6.4375 3.9725 -6.4375 4.6325 -6.4375 5.3125 C-5.7775 5.3125 -5.1175 5.3125 -4.4375 5.3125 C-4.4375 5.9725 -4.4375 6.6325 -4.4375 7.3125 C-5.4275 7.3125 -6.4175 7.3125 -7.4375 7.3125 C-7.5625 4.9375 -7.5625 4.9375 -7.4375 2.3125 C-4.83563892 -0.28936108 -3.61395645 0.01439823 0 0 Z " fill="#189DF4" transform="translate(206.4375,110.6875)"/>
<path d="M0 0 C6.6 0 13.2 0 20 0 C20 2.31 20 4.62 20 7 C19.01 7 18.02 7 17 7 C17 5 17 5 18 4 C12.39 4 6.78 4 1 4 C0.67 2.68 0.34 1.36 0 0 Z " fill="#51C6E8" transform="translate(184,35)"/>
<path d="M0 0 C1.65 0 3.3 0 5 0 C5 4.29 5 8.58 5 13 C3.35 13 1.7 13 0 13 C0 8.71 0 4.42 0 0 Z " fill="#68CEDE" transform="translate(60,111)"/>
<path d="M0 0 C1.18681726 3.56045177 1.09689832 6.43808337 1.0625 10.1875 C1.05347656 11.45980469 1.04445313 12.73210937 1.03515625 14.04296875 C1.02355469 15.01878906 1.01195313 15.99460937 1 17 C-0.98 17 -2.96 17 -5 17 C-5 16.67 -5 16.34 -5 16 C-3.35 16 -1.7 16 0 16 C0 12.04 0 8.08 0 4 C-1.32 4 -2.64 4 -4 4 C-4 5.98 -4 7.96 -4 10 C-6.5625 7.75 -6.5625 7.75 -9 5 C-9 2.75 -9 2.75 -8 1 C-5.07175348 0.02391783 -3.04386724 -0.08226668 0 0 Z " fill="#DEF2F5" transform="translate(88,107)"/>
<path d="M0 0 C5.93002267 -0.37851209 10.47239641 0.89424625 16 3 C16 3.33 16 3.66 16 4 C12.97265625 4.68359375 12.97265625 4.68359375 9.9453125 5.3671875 C7.79280036 5.90474428 7.79280036 5.90474428 6 8 C5.34 7.01 4.68 6.02 4 5 C1.57478506 4.41810734 1.57478506 4.41810734 -1.125 4.3125 C-2.03507812 4.24675781 -2.94515625 4.18101563 -3.8828125 4.11328125 C-4.58148438 4.07589844 -5.28015625 4.03851563 -6 4 C-6 3.67 -6 3.34 -6 3 C-4.02 2.67 -2.04 2.34 0 2 C0 1.34 0 0.68 0 0 Z " fill="#E9F6FC" transform="translate(128,107)"/>
<path d="M0 0 C0.66 0 1.32 0 2 0 C2.19622046 4.12463416 2.38050216 8.24971573 2.5625 12.375 C2.61857422 13.550625 2.67464844 14.72625 2.73242188 15.9375 C2.78076172 17.05898437 2.82910156 18.18046875 2.87890625 19.3359375 C2.9260376 20.37282715 2.97316895 21.4097168 3.02172852 22.47802734 C3 25 3 25 2 27 C1.34 27 0.68 27 0 27 C0 18.09 0 9.18 0 0 Z " fill="#159CF9" transform="translate(248,72)"/>
<path d="M0 0 C6.27 0 12.54 0 19 0 C21.17766075 4.35532149 21.03039555 5.46625958 20 10 C19.67 9.01 19.34 8.02 19 7 C15.52176885 5.84058962 13.54104422 6.29179116 10 7 C10 6.34 10 5.68 10 5 C11.65 5 13.3 5 15 5 C15 3.68 15 2.36 15 1 C10.05 1 5.1 1 0 1 C0 0.67 0 0.34 0 0 Z " fill="#E9F5F9" transform="translate(178,110)"/>
<path d="M0 0 C0.99 0 1.98 0 3 0 C3 1.32 3 2.64 3 4 C8.94 4 14.88 4 21 4 C21 4.99 21 5.98 21 7 C14.73 7 8.46 7 2 7 C2 6.01 2 5.02 2 4 C1.34 4 0.68 4 0 4 C0 2.68 0 1.36 0 0 Z " fill="#5FE2CF" transform="translate(59,35)"/>
<path d="M0 0 C0.33 0 0.66 0 1 0 C1 3.96 1 7.92 1 12 C2.32 12 3.64 12 5 12 C5 10.02 5 8.04 5 6 C8.73639216 7.24546405 9.18756513 8.63404953 11 12 C10.34 12 9.68 12 9 12 C8.67 13.65 8.34 15.3 8 17 C7.34 16.01 6.68 15.02 6 14 C4.02 14 2.04 14 0 14 C0 9.38 0 4.76 0 0 Z " fill="#DDF0F6" transform="translate(95,111)"/>
<path d="M0 0 C0.99 0 1.98 0 3 0 C3.33 1.65 3.66 3.3 4 5 C2.35 5.33 0.7 5.66 -1 6 C-1 6.66 -1 7.32 -1 8 C-4.48624056 7.3543999 -7.12498789 6.07639763 -10 4 C-10 3.01 -10 2.02 -10 1 C-7.625 0.8125 -7.625 0.8125 -5 1 C-4.34 1.99 -3.68 2.98 -3 4 C-0.94074861 4.72382467 -0.94074861 4.72382467 1 5 C0.67 3.35 0.34 1.7 0 0 Z " fill="#EAF6F5" transform="translate(235,119)"/>
<path d="M0 0 C1.98 0 3.96 0 6 0 C6.33 0.66 6.66 1.32 7 2 C6.01 2.33 5.02 2.66 4 3 C4 5.97 4 8.94 4 12 C2.68 12 1.36 12 0 12 C0 8.04 0 4.08 0 0 Z " fill="#3ABCE6" transform="translate(96,111)"/>
<path d="M0 0 C3.50454574 6.01175041 2.38670401 13.41315598 1 20 C0.67 18.68 0.34 17.36 0 16 C-0.66 16 -1.32 16 -2 16 C-2 11.05 -2 6.1 -2 1 C-1.34 0.67 -0.68 0.34 0 0 Z " fill="#EEF8FA" transform="translate(157,66)"/>
<path d="M0 0 C0.33 0 0.66 0 1 0 C1 5.61 1 11.22 1 17 C1.66 17 2.32 17 3 17 C3.33 17.99 3.66 18.98 4 20 C2.68 20.33 1.36 20.66 0 21 C-1.31899228 17.01161858 -1.14712869 12.96162876 -1.125 8.8125 C-1.12886719 8.07580078 -1.13273438 7.33910156 -1.13671875 6.58007812 C-1.12668491 1.12668491 -1.12668491 1.12668491 0 0 Z " fill="#27A7FC" transform="translate(211,79)"/>
<path d="M0 0 C0.66 0.33 1.32 0.66 2 1 C1.40138258 3.35171131 0.73075648 5.6859378 0 8 C-0.99 8.495 -0.99 8.495 -2 9 C-2 8.01 -2 7.02 -2 6 C-5.12270126 8.51830747 -5.94523098 9.7261549 -6.75 13.75 C-6.8325 14.8225 -6.915 15.895 -7 17 C-8.7648446 14.45078003 -9.04553291 13.29271158 -8.5625 10.1875 C-6.47498412 5.92896761 -3.48835706 3.15257938 0 0 Z " fill="#56C7E0" transform="translate(166,53)"/>
<path d="M0 0 C2.64 0 5.28 0 8 0 C8 0.66 8 1.32 8 2 C6.35 2 4.7 2 3 2 C2.67 10.91 2.34 19.82 2 29 C1.67 29 1.34 29 1 29 C0.67 19.43 0.34 9.86 0 0 Z " fill="#48BEDF" transform="translate(208,27)"/>
<path d="M0 0 C0.33 0 0.66 0 1 0 C1.33 2.64 1.66 5.28 2 8 C4.97 8 7.94 8 11 8 C11 9.32 11 10.64 11 12 C7.37 12 3.74 12 0 12 C0 8.04 0 4.08 0 0 Z " fill="#4DCBDB" transform="translate(86,88)"/>
<path d="M0 0 C0.33 0 0.66 0 1 0 C1 7.26 1 14.52 1 22 C0.34 22 -0.32 22 -1 22 C-1 22.66 -1 23.32 -1 24 C-1.99 24.33 -2.98 24.66 -4 25 C-4 22.69 -4 20.38 -4 18 C-3.01 18 -2.02 18 -1 18 C-0.505 9.09 -0.505 9.09 0 0 Z " fill="#35B8E4" transform="translate(218,32)"/>
<path d="M0 0 C1.32 0 2.64 0 4 0 C4 3.96 4 7.92 4 12 C3.01 12 2.02 12 1 12 C0.67 8.04 0.34 4.08 0 0 Z " fill="#44C0E4" transform="translate(84,111)"/>
<path d="M0 0 C0.33 0 0.66 0 1 0 C1.13277344 0.88042969 1.26554687 1.76085937 1.40234375 2.66796875 C1.57894531 3.82941406 1.75554687 4.99085937 1.9375 6.1875 C2.11152344 7.33605469 2.28554687 8.48460938 2.46484375 9.66796875 C2.91379313 12.46325212 3.42082162 15.22933586 4 18 C2.35 18 0.7 18 -1 18 C-1.33 15.36 -1.66 12.72 -2 10 C-1.34 10 -0.68 10 0 10 C0 6.7 0 3.4 0 0 Z " fill="#EEF6FA" transform="translate(105,70)"/>
<path d="M0 0 C1.4540625 0.0309375 1.4540625 0.0309375 2.9375 0.0625 C3.2675 3.0325 3.5975 6.0025 3.9375 9.0625 C2.9475 8.0725 1.9575 7.0825 0.9375 6.0625 C0.9375 5.4025 0.9375 4.7425 0.9375 4.0625 C-1.92974686 4.63594937 -2.9239515 4.9239515 -5.0625 7.0625 C-4.02286585 0.0820993 -4.02286585 0.0820993 0 0 Z " fill="#28A8F1" transform="translate(167.0625,110.9375)"/>
<path d="M0 0 C0.33 0.66 0.66 1.32 1 2 C-2.96 2 -6.92 2 -11 2 C-11 2.99 -11 3.98 -11 5 C-11.763125 5.28875 -12.52625 5.5775 -13.3125 5.875 C-16.15029308 6.96269013 -16.15029308 6.96269013 -19 9 C-15.95173756 -0.97613162 -9.09213362 -0.52203638 0 0 Z " fill="#E3F6FB" transform="translate(186,61)"/>
<path d="M0 0 C0.66 0 1.32 0 2 0 C2 0.66 2 1.32 2 2 C3.32 2.33 4.64 2.66 6 3 C5.236875 3.020625 4.47375 3.04125 3.6875 3.0625 C0.58610882 3.79660949 0.58610882 3.79660949 -0.8125 7.5625 C-1.204375 8.696875 -1.59625 9.83125 -2 11 C-4 10 -4 10 -5.125 6.9375 C-5.41375 5.968125 -5.7025 4.99875 -6 4 C-4.68 4.33 -3.36 4.66 -2 5 C-1.855625 4.360625 -1.71125 3.72125 -1.5625 3.0625 C-1 1 -1 1 0 0 Z " fill="#ECF7F9" transform="translate(150,108)"/>
<path d="M0 0 C0.33 0.99 0.66 1.98 1 3 C4.63 3.33 8.26 3.66 12 4 C11.67 4.99 11.34 5.98 11 7 C7.37 7 3.74 7 0 7 C-1.04449911 3.86650268 -0.93423645 3.01031744 0 0 Z " fill="#BDDCF5" transform="translate(242,114)"/>
<path d="M0 0 C1.2065625 0.0309375 1.2065625 0.0309375 2.4375 0.0625 C2.81968767 1.71864657 3.15145102 3.38707024 3.4375 5.0625 C2.4375 6.0625 2.4375 6.0625 -0.125 6.125 C-1.3315625 6.0940625 -1.3315625 6.0940625 -2.5625 6.0625 C-2.94468767 4.40635343 -3.27645102 2.73792976 -3.5625 1.0625 C-2.5625 0.0625 -2.5625 0.0625 0 0 Z " fill="#D7E9F4" transform="translate(206.5625,113.9375)"/>
<path d="M0 0 C1.2065625 0.0309375 1.2065625 0.0309375 2.4375 0.0625 C2.81968767 1.71864657 3.15145102 3.38707024 3.4375 5.0625 C2.4375 6.0625 2.4375 6.0625 -0.125 6.125 C-1.3315625 6.0940625 -1.3315625 6.0940625 -2.5625 6.0625 C-2.94468767 4.40635343 -3.27645102 2.73792976 -3.5625 1.0625 C-2.5625 0.0625 -2.5625 0.0625 0 0 Z " fill="#E5F3F8" transform="translate(126.5625,113.9375)"/>
<path d="M0 0 C0.33 0.99 0.66 1.98 1 3 C2.32 3 3.64 3 5 3 C5 2.34 5 1.68 5 1 C6.32 1 7.64 1 9 1 C9 1.66 9 2.32 9 3 C8.34 3 7.68 3 7 3 C7 5.97 7 8.94 7 12 C7.99 12 8.98 12 10 12 C10 9.36 10 6.72 10 4 C10.33 4 10.66 4 11 4 C11 6.97 11 9.94 11 13 C9.35 13 7.7 13 6 13 C6 10.03 6 7.06 6 4 C4.02 4 2.04 4 0 4 C0 2.68 0 1.36 0 0 Z " fill="#66B7F1" transform="translate(177,111)"/>
<path d="M0 0 C2.4375 0.375 2.4375 0.375 5 1 C5.33 1.66 5.66 2.32 6 3 C6.33 3 6.66 3 7 3 C7 4.65 7 6.3 7 8 C3.62496331 6.8141763 1.35277269 5.72426311 -1 3 C-0.67 2.01 -0.34 1.02 0 0 Z " fill="#F0F5F8" transform="translate(169,80)"/>
<path d="M0 0 C1.41750563 0.11509661 2.83401169 0.24253658 4.25 0.375 C5.03890625 0.44460937 5.8278125 0.51421875 6.640625 0.5859375 C9.085877 1.01507113 10.84836903 1.78600638 13 3 C11.42039731 4.57960269 9.80463184 4.16986544 7.625 4.1875 C6.83351562 4.20167969 6.04203125 4.21585937 5.2265625 4.23046875 C3 4 3 4 0 2 C0 1.34 0 0.68 0 0 Z " fill="#30A3F2" transform="translate(243,120)"/>
<path d="M0 0 C1.32 0 2.64 0 4 0 C4 3.3 4 6.6 4 10 C2.68 10 1.36 10 0 10 C0 6.7 0 3.4 0 0 Z " fill="#43C4E1" transform="translate(72,113)"/>
<path d="M0 0 C3.3125 -0.25 3.3125 -0.25 7 0 C9.33130719 2.25359695 9.97071908 3.91215725 11 7 C10.34 7.66 9.68 8.32 9 9 C8.443125 8.236875 7.88625 7.47375 7.3125 6.6875 C5.03070844 4.03568819 3.02480829 2.68044905 0 1 C0 0.67 0 0.34 0 0 Z " fill="#3EAFF4" transform="translate(237,60)"/>
<path d="M0 0 C7.34693878 -0.48979592 7.34693878 -0.48979592 10.5 1.875 C12 4 12 4 12 6 C8.28400809 6.20086443 7.22791555 6.1519437 4 4 C3.34 3.67 2.68 3.34 2 3 C2 2.34 2 1.68 2 1 C1.34 0.67 0.68 0.34 0 0 Z " fill="#43B3F3" transform="translate(224,55)"/>
<path d="M0 0 C2.60018816 3.90028225 2.15085514 7.47434569 2 12 C2.66 12.33 3.32 12.66 4 13 C3.01 13.66 2.02 14.32 1 15 C-1.25495121 10.49009758 -1.2430836 6.94269981 -1 2 C-0.67 1.34 -0.34 0.68 0 0 Z " fill="#EDF7FA" transform="translate(118,68)"/>
<path d="M0 0 C0 1.32 0 2.64 0 4 C-1.11375 3.5359375 -1.11375 3.5359375 -2.25 3.0625 C-7.44702225 1.59001036 -12.62487263 1.33050945 -18 1 C-18 0.67 -18 0.34 -18 0 C-11.67370431 -0.90375653 -6.32629569 -0.90375653 0 0 Z " fill="#E1F0F6" transform="translate(247,49)"/>
<path d="M0 0 C2.4375 0.8125 2.4375 0.8125 5 2 C5.33 2.99 5.66 3.98 6 5 C5.01 5.99 4.02 6.98 3 8 C0.9375 6.25 0.9375 6.25 -1 4 C-0.75 1.75 -0.75 1.75 0 0 Z " fill="#51C2EC" transform="translate(100,112)"/>
<path d="M0 0 C1.2065625 0.0309375 1.2065625 0.0309375 2.4375 0.0625 C1.4475 2.3725 0.4575 4.6825 -0.5625 7.0625 C-1.2225 7.0625 -1.8825 7.0625 -2.5625 7.0625 C-2.94383299 5.0710944 -3.27575582 3.06970923 -3.5625 1.0625 C-2.5625 0.0625 -2.5625 0.0625 0 0 Z " fill="#37AEEB" transform="translate(153.5625,110.9375)"/>
<path d="M0 0 C0.99 0 1.98 0 3 0 C2.67 1.98 2.34 3.96 2 6 C2.99 6.33 3.98 6.66 5 7 C5 7.66 5 8.32 5 9 C1.63408134 7.55746343 -0.51047079 5.66735273 -3 3 C-2.01 3 -1.02 3 0 3 C0 2.01 0 1.02 0 0 Z " fill="#E7F7FA" transform="translate(250,50)"/>
<path d="M0 0 C0.99 0 1.98 0 3 0 C3 2.64 3 5.28 3 8 C1.68 8 0.36 8 -1 8 C-0.67 5.36 -0.34 2.72 0 0 Z " fill="#3FC0EA" transform="translate(153,72)"/>
<path d="M0 0 C0.66 0.33 1.32 0.66 2 1 C2 1.66 2 2.32 2 3 C2.99 3.33 3.98 3.66 5 4 C5.6875 6.0625 5.6875 6.0625 6 8 C1.3697479 6.53781513 1.3697479 6.53781513 -0.375 4 C-1 2 -1 2 0 0 Z " fill="#F0F7F8" transform="translate(198,120)"/>
<path d="M0 0 C0.33 1.32 0.66 2.64 1 4 C-1.64 4.33 -4.28 4.66 -7 5 C-7.33 4.34 -7.66 3.68 -8 3 C-5.02583145 0.02583145 -4.38431613 0 0 0 Z " fill="#73C2F6" transform="translate(168,115)"/>
<path d="M0 0 C3.96 0 7.92 0 12 0 C11.67 0.66 11.34 1.32 11 2 C8.93359375 2.4140625 8.93359375 2.4140625 6.4375 2.625 C5.61121094 2.69976562 4.78492188 2.77453125 3.93359375 2.8515625 C2.97646484 2.92503906 2.97646484 2.92503906 2 3 C1.34 2.01 0.68 1.02 0 0 Z " fill="#23A9F4" transform="translate(192,83)"/>
<path d="M0 0 C4.67239145 2.13206212 8.59287819 4.02502456 12 8 C11.67 8.66 11.34 9.32 11 10 C10.01 9.67 9.02 9.34 8 9 C8 8.01 8 7.02 8 6 C7.4225 5.71125 6.845 5.4225 6.25 5.125 C4.16666667 4.08333333 2.08333333 3.04166667 0 2 C0 1.34 0 0.68 0 0 Z " fill="#53C0DF" transform="translate(189,51)"/>
<path d="M0 0 C3.0916909 2.52956528 3.90931332 5.22454612 5 9 C2 9 2 9 0.25 7.3125 C-1 5 -1 5 -0.6875 2.25 C-0.460625 1.5075 -0.23375 0.765 0 0 Z " fill="#EFF5FB" transform="translate(138,112)"/>
<path d="M0 0 C0 0.66 0 1.32 0 2 C-3.63 1.67 -7.26 1.34 -11 1 C-6.46638825 -2.02240784 -4.84891921 -2.2278818 0 0 Z " fill="#3BA3F1" transform="translate(259,113)"/>
<path d="M0 0 C0.33 0 0.66 0 1 0 C1.33 2.31 1.66 4.62 2 7 C-0.3125 7.25 -0.3125 7.25 -3 7 C-4.8125 5 -4.8125 5 -6 3 C-4.68 3.33 -3.36 3.66 -2 4 C-1.34 2.68 -0.68 1.36 0 0 Z " fill="#58BCE9" transform="translate(110,117)"/>
<path d="M0 0 C1.875 0.25 1.875 0.25 4 1 C5.25 3.0625 5.25 3.0625 6 5 C5.01 5.33 4.02 5.66 3 6 C0.8125 4.5625 0.8125 4.5625 -1 3 C-0.67 2.01 -0.34 1.02 0 0 Z " fill="#63D0E2" transform="translate(146,56)"/>
<path d="M0 0 C3.375 -0.1875 3.375 -0.1875 7 0 C9 3 9 3 8.625 5.1875 C8.41875 5.785625 8.2125 6.38375 8 7 C7.67 6.01 7.34 5.02 7 4 C6.34 4 5.68 4 5 4 C5 3.01 5 2.02 5 1 C3.35 1.33 1.7 1.66 0 2 C0 1.34 0 0.68 0 0 Z " fill="#D5F0FC" transform="translate(163,121)"/>
<path d="M0 0 C0.33 0.99 0.66 1.98 1 3 C1.99 2.67 2.98 2.34 4 2 C4 3.98 4 5.96 4 8 C3.34 8 2.68 8 2 8 C0.61061923 6.03852126 -0.7260411 4.03833424 -2 2 C-1.34 1.34 -0.68 0.68 0 0 Z " fill="#DEF3F4" transform="translate(104,109)"/>
<path d="M0 0 C0.33 0 0.66 0 1 0 C1.144375 0.763125 1.28875 1.52625 1.4375 2.3125 C1.9632594 5.08172908 1.9632594 5.08172908 3 8 C2.72428861 10.00875442 2.39764263 12.01178687 2 14 C1.67 12.68 1.34 11.36 1 10 C0.34 10 -0.32 10 -1 10 C-0.67 6.7 -0.34 3.4 0 0 Z " fill="#D6ECF4" transform="translate(156,72)"/>
<path d="M0 0 C1.625 1.5 1.625 1.5 3 3 C2.67 3.99 2.34 4.98 2 6 C1.505 5.525625 1.01 5.05125 0.5 4.5625 C-2.99468651 2.37832093 -5.90966936 2.34086089 -10 2 C-10 1.67 -10 1.34 -10 1 C-2.25 0 -2.25 0 0 0 Z " fill="#5CC4E6" transform="translate(188,59)"/>
<path d="M0 0 C1.65 0.33 3.3 0.66 5 1 C4.01 1.495 4.01 1.495 3 2 C3 2.99 3 3.98 3 5 C1.35 5 -0.3 5 -2 5 C-1.34 3.35 -0.68 1.7 0 0 Z " fill="#43ABE9" transform="translate(160,119)"/>
<path d="M0 0 C2.31 0 4.62 0 7 0 C7 0.99 7 1.98 7 3 C4.69 3 2.38 3 0 3 C0 2.01 0 1.02 0 0 Z " fill="#D3EBFA" transform="translate(225,114)"/>
<path d="M0 0 C0.33 0.99 0.66 1.98 1 3 C-0.62339805 4.70884005 -2.29319053 6.37446717 -4 8 C-4.66 8 -5.32 8 -6 8 C-6 7.34 -6 6.68 -6 6 C-6.66 5.67 -7.32 5.34 -8 5 C-7.05125 4.54625 -6.1025 4.0925 -5.125 3.625 C-1.99686321 2.19761746 -1.99686321 2.19761746 0 0 Z " fill="#DBECF7" transform="translate(198,92)"/>
<path d="M0 0 C1.32 0 2.64 0 4 0 C2.125 3.875 2.125 3.875 1 5 C-0.66617115 5.04063832 -2.33388095 5.042721 -4 5 C-4 4.34 -4 3.68 -4 3 C-3.01 3 -2.02 3 -1 3 C-0.67 2.01 -0.34 1.02 0 0 Z " fill="#24ABED" transform="translate(196,89)"/>
<path d="M0 0 C2.5 2.3125 2.5 2.3125 5 5 C5 5.99 5 6.98 5 8 C4.34 8 3.68 8 3 8 C1.39446555 6.07335866 0.12183498 4.24366996 -1 2 C-0.67 1.34 -0.34 0.68 0 0 Z " fill="#34ABF1" transform="translate(250,56)"/>
<path d="M0 0 C0 0.33 0 0.66 0 1 C-1.45792884 1.05399736 -2.91642712 1.09279177 -4.375 1.125 C-5.18710938 1.14820312 -5.99921875 1.17140625 -6.8359375 1.1953125 C-9 1 -9 1 -11 -1 C-6.99799622 -2.60080151 -3.95443764 -1.29279692 0 0 Z " fill="#61C2EE" transform="translate(131,123)"/>
<path d="M0 0 C3.875 1.875 3.875 1.875 5 3 C5.04080783 4.99958364 5.04254356 7.00045254 5 9 C4.67 9 4.34 9 4 9 C4 7.35 4 5.7 4 4 C3.01 4 2.02 4 1 4 C1 3.34 1 2.68 1 2 C0.34 1.67 -0.32 1.34 -1 1 C-0.67 0.67 -0.34 0.34 0 0 Z " fill="#42A7F3" transform="translate(210,111)"/>
<path d="M0 0 C1.9375 0.375 1.9375 0.375 4 1 C4.33 1.66 4.66 2.32 5 3 C4.195625 3.12375 3.39125 3.2475 2.5625 3.375 C1.2940625 3.684375 1.2940625 3.684375 0 4 C-0.33 4.66 -0.66 5.32 -1 6 C-0.67 4.02 -0.34 2.04 0 0 Z " fill="#EFF8FC" transform="translate(241,65)"/>
<path d="M0 0 C0 2.79784711 -0.37195775 4.9790678 -1 7.6875 C-1.185625 8.49574219 -1.37125 9.30398437 -1.5625 10.13671875 C-1.706875 10.75160156 -1.85125 11.36648437 -2 12 C-4.09375 8.390625 -4.09375 8.390625 -3.25 4.875 C-2 2 -2 2 0 0 Z " fill="#68C8DC" transform="translate(161,58)"/>
<path d="M0 0 C1.65 0 3.3 0 5 0 C5 1.32 5 2.64 5 4 C3.02 3.34 1.04 2.68 -1 2 C-0.67 1.34 -0.34 0.68 0 0 Z " fill="#EFF9FB" transform="translate(205,115)"/>
<path d="M0 0 C2.97 0 5.94 0 9 0 C9 0.99 9 1.98 9 3 C6.03 2.67 3.06 2.34 0 2 C0 1.34 0 0.68 0 0 Z " fill="#3DBBE1" transform="translate(143,86)"/>
<path d="M0 0 C0.66 0.33 1.32 0.66 2 1 C2 2.65 2 4.3 2 6 C-0.97 5.505 -0.97 5.505 -4 5 C-4 4.34 -4 3.68 -4 3 C-2.68 3 -1.36 3 0 3 C0 2.01 0 1.02 0 0 Z " fill="#3CBFF6" transform="translate(163,77)"/>
</svg>
