<?xml version="1.0" encoding="UTF-8"?>
<svg version="1.1" xmlns="http://www.w3.org/2000/svg" width="2000" height="1500">
<path d="M0 0 C660 0 1320 0 2000 0 C2000 495 2000 990 2000 1500 C1340 1500 680 1500 0 1500 C0 1005 0 510 0 0 Z " fill="#EFEDFD" transform="translate(0,0)"/>
<path d="M0 0 C0.96862473 -0.01226624 0.96862473 -0.01226624 1.95681763 -0.02478027 C4.09709751 -0.04962316 6.23731109 -0.06614771 8.37768555 -0.08056641 C9.10879232 -0.08589008 9.8398991 -0.09121376 10.59316063 -0.09669876 C14.46330085 -0.12342621 18.33340886 -0.14280189 22.20361328 -0.15722656 C26.19869682 -0.17386936 30.19295457 -0.21864371 34.18772602 -0.26959801 C37.2615604 -0.30327505 40.33519891 -0.31480437 43.40920067 -0.32045364 C44.88161718 -0.32716552 46.35402083 -0.34238629 47.82625771 -0.36634445 C49.89006183 -0.3980117 51.95164114 -0.39803252 54.015625 -0.390625 C55.7752935 -0.40275528 55.7752935 -0.40275528 57.57051086 -0.41513062 C61.65271521 0.37748369 63.14091718 1.98625248 65.7019043 5.19287109 C66.4465367 9.1642439 66.07457308 10.63386793 63.8269043 14.00537109 C61.7019043 16.19287109 61.7019043 16.19287109 59.7019043 17.19287109 C39.5719043 17.19287109 19.4419043 17.19287109 -1.2980957 17.19287109 C-1.2980957 71.31287109 -1.2980957 125.43287109 -1.2980957 181.19287109 C82.8519043 181.19287109 167.0019043 181.19287109 253.7019043 181.19287109 C253.7019043 127.07287109 253.7019043 72.95287109 253.7019043 17.19287109 C233.5719043 17.19287109 213.4419043 17.19287109 192.7019043 17.19287109 C187.7019043 12.19287109 187.7019043 12.19287109 187.0769043 8.69287109 C187.86946942 4.25450639 189.23419754 3.00529639 192.7019043 0.19287109 C195.71699524 -0.43531799 195.71699524 -0.43531799 199.109375 -0.43823242 C200.38452469 -0.45076553 201.65967438 -0.46329865 202.97346497 -0.47621155 C204.35821553 -0.46393886 205.74295633 -0.45051817 207.12768555 -0.43603516 C208.55869222 -0.43686465 209.9896988 -0.43932709 211.42070007 -0.44334412 C214.41764059 -0.44619909 217.41383257 -0.43153773 220.41064453 -0.40405273 C224.23388096 -0.37006165 228.05577146 -0.37595933 231.87907124 -0.39471531 C234.83474234 -0.40533813 237.79010592 -0.39629854 240.74574852 -0.38133049 C242.15420808 -0.37618052 243.56270021 -0.37659144 244.97115517 -0.38287544 C252.9360018 -0.40506409 258.95072116 -0.24575207 265.7019043 4.19287109 C270.64624 9.26398463 270.82603237 13.27009632 270.84234619 20.16329956 C270.84680287 21.21563253 270.84680287 21.21563253 270.85134959 22.28922474 C270.86002048 24.6397687 270.86154346 26.99026163 270.86303711 29.34082031 C270.86766636 31.02623605 270.87269117 32.71165074 270.87808228 34.39706421 C270.89119647 38.97559619 270.89764912 43.55411352 270.90209293 48.13266134 C270.90502476 50.9931276 270.90912974 53.85358986 270.91359711 56.71405411 C270.92726839 65.66388743 270.93693731 74.6137116 270.940799 83.56355464 C270.94528139 93.89502474 270.96283927 104.22636265 270.99179959 114.55779254 C271.01341001 122.54431552 271.02350291 130.53080127 271.02484012 138.51735318 C271.02588844 143.28730484 271.03180237 148.05713218 271.04965973 152.82705307 C271.06612972 157.31355163 271.06830115 161.79983225 271.05952072 166.28635025 C271.05874982 167.9318729 271.0631001 169.57740722 271.07297897 171.22290039 C271.08568688 173.47168487 271.07982859 175.71969604 271.06939697 177.96847534 C271.07086353 179.22613646 271.07233009 180.48379757 271.07384109 181.77956963 C270.59687926 186.15669641 269.21594154 189.52944885 266.23706055 192.80224609 C261.55042794 196.43221087 258.52826013 198.44557794 252.55133057 198.43338013 C251.51089096 198.43612946 250.47045135 198.43887878 249.39848328 198.44171143 C248.26272354 198.43452087 247.12696381 198.42733032 245.95678711 198.41992188 C244.15637718 198.42035995 244.15637718 198.42035995 242.31959534 198.42080688 C239.03267877 198.41965276 235.74593276 198.40962611 232.45905018 198.39565897 C229.02241063 198.38315171 225.58576768 198.38198112 222.14910889 198.37960815 C215.64329661 198.37339337 209.1375516 198.35698259 202.63176894 198.33690917 C195.22432962 198.31455012 187.81688707 198.30355673 180.4094224 198.2935183 C165.17353746 198.27261633 149.93774515 198.23594014 134.7019043 198.19287109 C134.7019043 209.08287109 134.7019043 219.97287109 134.7019043 231.19287109 C140.47948242 231.12326172 140.47948242 231.12326172 146.3737793 231.05224609 C150.10032839 231.02105963 153.826863 230.99676651 157.5534668 230.97314453 C160.14532976 230.95301734 162.73714726 230.92571294 165.32885742 230.89111328 C169.05227878 230.84264608 172.77510029 230.81991293 176.4987793 230.80224609 C178.23958771 230.77127838 178.23958771 230.77127838 180.01556396 230.73968506 C181.09638245 230.73938293 182.17720093 230.73908081 183.29077148 230.73876953 C184.24119324 230.72988708 185.19161499 230.72100464 186.1708374 230.71185303 C189.48311626 231.34133697 190.66054377 232.55659515 192.7019043 235.19287109 C193.32174929 239.45430541 193.19502394 241.43675432 190.8269043 245.06787109 C187.75306067 248.14171472 186.12729347 248.31961216 181.90141296 248.34004211 C180.38095871 248.35077507 180.38095871 248.35077507 178.82978821 248.36172485 C177.71339462 248.36441376 176.59700104 248.36710266 175.44677734 248.36987305 C174.27433472 248.37644424 173.10189209 248.38301544 171.8939209 248.38978577 C168.00049494 248.40955314 164.10708243 248.42118853 160.21362305 248.43115234 C158.87335502 248.4351998 157.5330872 248.43931672 156.1928196 248.44350243 C149.89611302 248.46255493 143.59941817 248.47678574 137.3026883 248.4851144 C130.03422586 248.49488706 122.76606793 248.52120666 115.49771279 248.56161529 C109.87980379 248.59177632 104.26198207 248.60658324 98.64399368 248.60989541 C95.28856864 248.61224601 91.9334689 248.6212068 88.57813072 248.64635658 C84.83357674 248.67061785 81.08982281 248.66980638 77.34521484 248.6628418 C76.23489395 248.67565186 75.12457306 248.68846191 73.98060608 248.70166016 C66.46265887 248.65058543 66.46265887 248.65058543 62.53669739 246.28849792 C60.3496607 243.79055263 59.76703542 242.68135449 59.3269043 239.38037109 C59.7019043 236.19287109 59.7019043 236.19287109 61.47021484 233.52416992 C66.37425217 229.98646104 70.88704462 230.57033562 76.78393555 230.70458984 C77.95325119 230.71166458 79.12256683 230.71873932 80.32731628 230.72602844 C84.0570001 230.75398616 87.78517526 230.81673237 91.5144043 230.88037109 C94.04498156 230.90545195 96.57558238 230.92826548 99.10620117 230.94873047 C105.30581571 230.99956365 111.50217426 231.09742537 117.7019043 231.19287109 C117.7019043 220.30287109 117.7019043 209.41287109 117.7019043 198.19287109 C114.04805664 198.21381836 110.39420898 198.23476563 106.62963867 198.25634766 C94.55177418 198.32265305 82.47392239 198.36702464 70.39592743 198.40011978 C63.07367149 198.42071823 55.75158836 198.44878646 48.42944336 198.49462891 C42.04517195 198.53458036 35.66102573 198.56032366 29.27663279 198.56922507 C25.89814658 198.57442589 22.52001844 198.58659195 19.14164734 198.61579132 C15.36399177 198.64486509 11.58707579 198.64882523 7.80932617 198.64697266 C6.69729828 198.66135376 5.58527039 198.67573486 4.43954468 198.69055176 C-3.34725652 198.64928337 -8.96199885 197.52896795 -14.6730957 191.81787109 C-17.84997016 186.68599697 -18.5498031 182.04558676 -18.57225037 176.07131958 C-18.57748704 175.37763366 -18.58272372 174.68394773 -18.58811909 173.96924102 C-18.60305709 171.65716917 -18.60382286 169.34531982 -18.60449219 167.03320312 C-18.61211776 165.37043894 -18.62054594 163.70767827 -18.62971497 162.04492188 C-18.65162534 157.53661248 -18.660454 153.0283709 -18.66554141 148.52001429 C-18.66918854 145.70139293 -18.6754304 142.88278925 -18.6825428 140.06417465 C-18.70702354 130.22539237 -18.72008659 120.38666274 -18.72363281 110.54785156 C-18.72726885 101.38529928 -18.75717259 92.22308181 -18.7990374 83.06063187 C-18.83375257 75.18612941 -18.84918145 67.31173788 -18.84987885 59.43715942 C-18.85067113 54.73750836 -18.85938748 50.03819866 -18.88787651 45.33862686 C-18.91407886 40.91762991 -18.91625046 36.4972569 -18.90022087 32.07621765 C-18.8984082 30.45732638 -18.90508075 28.83839904 -18.92103958 27.21958542 C-19.06845448 11.29038386 -19.06845448 11.29038386 -13.2980957 5.19287109 C-8.67224568 0.9973327 -6.18460118 0.0679378 0 0 Z " fill="#370467" transform="translate(869.298095703125,567.80712890625)"/>
<path d="M0 0 C3.94965899 2.66307021 6.42663175 5.72992858 8.74609375 9.8515625 C9.11476563 10.43421875 9.4834375 11.016875 9.86328125 11.6171875 C12.33223533 17.86604473 11.83415948 26.60805098 9.71875 32.9140625 C6.20254105 39.3036278 6.20254105 39.3036278 2.59969711 40.65906525 C-0.52195551 42.00898686 -2.12325444 43.16885852 -4.25390625 45.8515625 C-6.09507632 52.39013505 -5.39439729 59.63925214 -5.28808594 66.35742188 C-5.28722408 68.48647766 -5.29039178 70.61553833 -5.29728699 72.74458313 C-5.30360122 77.3269175 -5.28165125 81.90793958 -5.23784637 86.49006653 C-5.16900646 93.73424346 -5.16430526 100.97759542 -5.16851807 108.2220459 C-5.16775065 119.67910526 -5.12547091 131.13556373 -5.06475091 142.59244871 C-4.95600532 163.11183546 -4.88984226 183.63122437 -4.88046384 204.15090227 C-4.87516492 211.35335965 -4.84265202 218.55503638 -4.7884984 225.75728607 C-4.75932371 230.23605613 -4.75039624 234.71470708 -4.74660683 239.19356346 C-4.74047533 241.27129228 -4.72568632 243.34901619 -4.70162773 245.42661476 C-4.66986846 248.2623048 -4.66882006 251.0964279 -4.67523193 253.93225098 C-4.6584196 254.75501699 -4.64160726 255.577783 -4.62428546 256.42548132 C-4.66680669 260.54450527 -5.03851739 263.09586068 -7.65896988 266.36360931 C-10.25390625 268.8515625 -10.25390625 268.8515625 -12.3515625 269.578125 C-15.51688284 269.41451003 -17.81731869 269.14498799 -20.46993637 267.36219406 C-23.03988268 263.74543552 -22.79416958 260.33008906 -22.73492432 256.05645752 C-22.73834202 255.15874185 -22.74175972 254.26102619 -22.74528098 253.33610702 C-22.75188057 250.32173042 -22.72984932 247.30824016 -22.70800781 244.29394531 C-22.70687979 242.13574749 -22.70751232 239.97754813 -22.70977783 237.8193512 C-22.71092765 231.95393875 -22.68737481 226.0888521 -22.659482 220.22351551 C-22.63451302 214.09627232 -22.6321299 207.96902205 -22.62738037 201.84173584 C-22.61493737 190.23598437 -22.58209773 178.63038323 -22.54198241 167.02469802 C-22.49730599 153.81326959 -22.47528804 140.60183405 -22.45520067 127.39034891 C-22.41336634 100.21067003 -22.34298846 73.03112468 -22.25390625 45.8515625 C-23.20313965 45.54686035 -24.15237305 45.2421582 -25.13037109 44.92822266 C-30.99415929 42.90701694 -34.8321076 39.16645985 -37.62890625 33.6640625 C-40.66850838 26.96372216 -41.63322184 20.30533388 -39.41796875 13.15234375 C-35.93585426 5.52207273 -30.74814942 -0.09596102 -22.81640625 -3.0859375 C-14.01068465 -5.46017643 -8.08162324 -4.34451593 0 0 Z " fill="#380568" transform="translate(1010.25390625,440.1484375)"/>
<path d="M0 0 C8.70208569 4.50868932 13.11592974 10.16028921 16.1875 19.375 C17.45152207 27.80714724 14.91754848 34.41550191 10.1875 41.375 C7.74507083 43.88650797 5.23759317 45.67053617 2.1875 47.375 C0.5478125 48.303125 0.5478125 48.303125 -1.125 49.25 C-8.09302279 51.37583746 -14.35990405 51.39473882 -21.0625 48.375 C-25.95030738 45.63876333 -29.75498634 42.07814792 -32.8125 37.375 C-33.17463634 36.0491998 -33.5123079 34.71618365 -33.8125 33.375 C-37.70962295 33.39784783 -41.60382936 33.4752222 -45.5 33.5625 C-47.15418945 33.57120117 -47.15418945 33.57120117 -48.84179688 33.58007812 C-55.51215978 33.55247801 -55.51215978 33.55247801 -61.01953125 36.80078125 C-63.6186983 40.53248296 -63.9362988 42.34169871 -63.93034363 46.85884094 C-63.93146149 48.02393188 -63.93257935 49.18902283 -63.93373108 50.38941956 C-63.93006027 51.67412643 -63.92638947 52.95883331 -63.92260742 54.2824707 C-63.92236536 55.64409384 -63.92264227 57.00571715 -63.92340088 58.36734009 C-63.92450841 61.30352144 -63.92307099 64.23968718 -63.92003441 67.17586708 C-63.91640752 71.81911614 -63.92552929 76.46228341 -63.93782043 81.10551453 C-63.93984236 81.88874142 -63.94186429 82.6719683 -63.94394749 83.47892934 C-63.94811627 85.08071972 -63.95231903 86.68251001 -63.95655501 88.28430021 C-63.98471592 99.09640109 -64.00482728 109.90832536 -63.98754883 120.72045898 C-63.97599396 128.01055579 -63.98557176 135.30028634 -64.01960641 142.59031743 C-64.03677101 146.44884658 -64.04303732 150.30671482 -64.023489 154.16524696 C-64.00526192 157.79599191 -64.01486923 161.42559851 -64.04574585 165.05624771 C-64.05514652 167.02217007 -64.03483049 168.98816427 -64.0136261 170.95399475 C-64.12210588 179.32007635 -64.12210588 179.32007635 -66.07122231 182.29833031 C-68.86689086 184.80370445 -70.69146911 185.37082652 -74.4375 185.5 C-78.48819313 184.14976896 -79.5121574 182.91458561 -81.8125 179.375 C-82.31865788 176.55440998 -82.31865788 176.55440998 -82.3271637 173.41218567 C-82.33988815 172.21653992 -82.35261261 171.02089417 -82.36572266 169.78901672 C-82.35919678 168.48554794 -82.3526709 167.18207916 -82.34594727 165.83911133 C-82.35300855 164.44574063 -82.36175445 163.05237761 -82.37205505 161.6590271 C-82.3945448 157.87972082 -82.39160914 154.10083345 -82.38273358 150.32148576 C-82.37761741 147.16081115 -82.38492197 144.00021483 -82.39220566 140.83954829 C-82.4092059 133.37660502 -82.40564068 125.91386617 -82.38891602 118.45092773 C-82.37202274 110.76924433 -82.38779002 103.08813035 -82.4201389 95.40650922 C-82.44690325 88.79904551 -82.45409157 82.1917583 -82.44562382 75.58424586 C-82.44071095 71.64353256 -82.44281939 67.70316116 -82.46341133 63.76249123 C-82.48187459 60.05138136 -82.47568195 56.34108353 -82.45121193 52.63001633 C-82.44387896 50.63287818 -82.46098039 48.6356961 -82.47903442 46.6386261 C-82.38339474 37.49527405 -80.5509383 30.80696484 -74.6015625 23.75390625 C-73.53035156 22.85478516 -73.53035156 22.85478516 -72.4375 21.9375 C-71.72851562 21.32003906 -71.01953125 20.70257813 -70.2890625 20.06640625 C-62.56689591 14.79243443 -56.05839981 14.99969056 -46.875 15.1875 C-45.61880859 15.20103516 -44.36261719 15.21457031 -43.06835938 15.22851562 C-39.98262721 15.26371409 -36.89778976 15.31295695 -33.8125 15.375 C-33.61140625 14.47394531 -33.61140625 14.47394531 -33.40625 13.5546875 C-31.63546428 7.05403991 -27.36228247 4.06212837 -21.93359375 0.57421875 C-15.44587249 -3.09379308 -6.78432022 -2.81415004 0 0 Z " fill="#350266" transform="translate(1106.8125,484.625)"/>
<path d="M0 0 C4.92276923 3.51626373 8.34642685 8.01416385 10.96875 13.40625 C12.07947876 13.42026855 12.07947876 13.42026855 13.21264648 13.43457031 C16.61115652 13.48869601 20.00835202 13.57226112 23.40625 13.65625 C25.15325195 13.67751953 25.15325195 13.67751953 26.93554688 13.69921875 C36.39477024 13.96567575 44.29275905 15.8419857 51.29197025 22.53583336 C58.23919541 30.2853339 58.68940506 38.70726803 58.59985352 48.69677734 C58.60500193 50.11047256 58.61229012 51.52416134 58.62153625 52.93783569 C58.63993155 56.74755349 58.62719212 60.55656473 58.60744596 64.36625242 C58.59097842 68.36287887 58.59988267 72.35946344 58.60496521 76.35610962 C58.60947402 83.0589723 58.59368416 89.76155477 58.56567383 96.46435547 C58.53354869 104.21153193 58.5336718 111.95820545 58.5508886 119.70541799 C58.56674705 127.17098187 58.56002967 134.63636147 58.54295158 142.10191727 C58.53608299 145.27491797 58.53711124 148.44777088 58.54449654 151.6207695 C58.55215421 155.35238523 58.54005124 159.08342734 58.51264763 162.81494522 C58.50247435 164.83701547 58.51194862 166.85915459 58.52197266 168.88122559 C58.50288597 170.68525345 58.50288597 170.68525345 58.4834137 172.52572632 C58.48060678 173.57095648 58.47779985 174.61618664 58.47490788 175.69309044 C57.83443068 179.12624223 56.69789411 180.28692159 53.96875 182.40625 C50.53125 183.40625 50.53125 183.40625 46.96875 183.40625 C44.16685554 181.63983828 42.45350089 180.37575178 40.96875 177.40625 C40.86979818 175.59307272 40.83531766 173.77624245 40.83071899 171.96037292 C40.82526566 170.80369614 40.81981232 169.64701935 40.81419373 168.45529175 C40.8131514 167.17993561 40.81210907 165.90457947 40.81103516 164.59057617 C40.80636776 163.23880345 40.80122432 161.8870323 40.79563904 160.53526306 C40.78435023 157.62036982 40.77591981 154.70548685 40.76951981 151.79057884 C40.75884875 147.18092911 40.73860604 142.57135302 40.71640015 137.96174622 C40.65444668 124.85238011 40.60046678 111.74301799 40.56738281 98.63354492 C40.54903795 91.39625869 40.52010329 84.15909545 40.4793781 76.92189962 C40.45830471 73.09150412 40.4428504 69.26126364 40.44057083 65.43080711 C40.43842344 61.82659804 40.42254521 58.22271164 40.39618111 54.61860085 C40.38556358 52.66702733 40.3897413 50.71539087 40.3943634 48.76379395 C40.38327042 47.59865768 40.37217743 46.43352142 40.36074829 45.233078 C40.35578307 43.71739872 40.35578307 43.71739872 40.35071754 42.17109966 C39.90339346 38.93317051 38.86539135 37.04532729 36.96875 34.40625 C32.52021196 31.36016387 27.23019095 31.88246235 22.03125 31.78125 C20.5472168 31.69423828 20.5472168 31.69423828 19.03320312 31.60546875 C16.13620519 31.55481512 13.75927528 31.61561538 10.96875 32.40625 C8.62518624 34.78072611 7.38975945 37.41935836 5.96875 40.40625 C4.16015625 42.4296875 4.16015625 42.4296875 2.53125 43.78125 C1.99628906 44.24273438 1.46132813 44.70421875 0.91015625 45.1796875 C-5.7760655 49.40398052 -13.4153576 49.08670774 -21.03125 48.40625 C-28.99551212 46.39288454 -33.81224207 39.98529506 -37.96875 33.28125 C-40.40848447 26.64822192 -40.39726739 17.52563662 -37.59375 11.03125 C-29.67541537 -2.09056168 -13.87100461 -7.24604718 0 0 Z " fill="#350165" transform="translate(908.03125,485.59375)"/>
<path d="M0 0 C6.6 0 13.2 0 20 0 C20 33.66 20 67.32 20 102 C13.4 102 6.8 102 0 102 C-0.33 97.71 -0.66 93.42 -1 89 C-1.556875 90.2375 -2.11375 91.475 -2.6875 92.75 C-5.00570059 97.37007582 -7.71313341 99.69321909 -12.1875 102.25 C-19.75377099 104.26767226 -25.92681639 103.3565855 -32.7421875 99.54296875 C-39.01197623 95.25825154 -42.7251422 89.18621745 -45 82 C-47.75615393 67.22701492 -47.84139927 51.3712563 -39.25 38.625 C-35.45010232 33.91622094 -30.70994865 30.90331622 -25 29 C-17.56571739 28.32816113 -11.16432093 28.46081823 -5 33 C-3.68 34.32 -2.36 35.64 -1 37 C-0.67 24.79 -0.34 12.58 0 0 Z " fill="#350266" transform="translate(1559,930)"/>
<path d="M0 0 C6.6 0 13.2 0 20 0 C20.33 13.86 20.66 27.72 21 42 C22.32 39.69 23.64 37.38 25 35 C28.30145437 31.39988105 31.68907179 29.20883944 36.63671875 28.76171875 C44.62458396 28.56739168 49.82540737 29.35687502 55.90234375 34.66015625 C60.84288369 39.74692782 62.98419923 45.29150173 65 52 C65.33 52.99 65.66 53.98 66 55 C66.76809465 69.26883529 66.74118511 83.58753313 57 95 C51.83566143 100.7094632 44.99127877 103.04678731 37.4375 103.4375 C31.91782987 103.21594256 27.32177194 101.3105012 23.390625 97.3984375 C22.19696006 95.98347513 21.08882552 94.49713509 20 93 C19.67 95.97 19.34 98.94 19 102 C12.73 102 6.46 102 0 102 C0 68.34 0 34.68 0 0 Z " fill="#350166" transform="translate(448,930)"/>
<path d="M0 0 C2.625 2.25 2.625 2.25 4 4 C4.33 2.02 4.66 0.04 5 -2 C7.31 -2 9.62 -2 12 -2 C12.09308814 8.09299237 12.16396064 18.18588093 12.20724869 28.27921677 C12.22803526 32.96706159 12.25618762 37.65461055 12.30175781 42.34228516 C12.34553684 46.87458412 12.36920409 51.40660029 12.37950897 55.93909454 C12.38684327 57.65969538 12.40116387 59.3802825 12.42292023 61.10076141 C12.69031084 83.14238914 12.69031084 83.14238914 6.3862915 91.01531982 C0.2972086 97.00144209 -7.19595202 98.18461347 -15.4375 98.5 C-23.07358786 98.33150057 -28.97427761 96.72999397 -34.6484375 91.47265625 C-38.69136355 86.88054661 -40.26956434 83.32170224 -40.125 77.25 C-40.09792969 75.77273438 -40.09792969 75.77273438 -40.0703125 74.265625 C-40.04710937 73.51796875 -40.02390625 72.7703125 -40 72 C-37.69 72 -35.38 72 -33 72 C-32.85304688 72.87011719 -32.85304688 72.87011719 -32.703125 73.7578125 C-31.71015181 78.94524139 -30.68830616 83.02797798 -27 87 C-20.76559305 90.30498682 -13.60240854 91.29748751 -6.796875 89.37890625 C-2.08010858 87.41358691 0.08353404 85.00618633 2.22143555 80.44726562 C3.72685716 75.71526618 3.40990297 70.91394121 3.25 66 C3.23195313 64.93910156 3.21390625 63.87820313 3.1953125 62.78515625 C3.14853748 60.1891428 3.08301142 57.59506472 3 55 C2.54109375 55.55429687 2.0821875 56.10859375 1.609375 56.6796875 C0.99578125 57.40414062 0.3821875 58.12859375 -0.25 58.875 C-0.85328125 59.59429688 -1.4565625 60.31359375 -2.078125 61.0546875 C-5.91299593 64.93632515 -9.26491848 65.33647851 -14.625 65.4375 C-23.51575754 65.28054997 -29.66592237 62.75472881 -35.875 56.375 C-42.29120501 48.12342665 -43.36515565 40.08755133 -43.5 29.875 C-43.51861084 28.94478027 -43.53722168 28.01456055 -43.55639648 27.05615234 C-43.4683248 17.41957146 -39.82613651 8.8861465 -33 2 C-22.47250561 -5.37840041 -11.40820237 -6.16209471 0 0 Z " fill="#3A076A" transform="translate(1081,963)"/>
<path d="M0 0 C2.64 0 5.28 0 8 0 C8.33 13.53 8.66 27.06 9 41 C10.65 38.69 12.3 36.38 14 34 C19.57736655 29.04355121 25.65079179 28.25556008 32.921875 28.59375 C40.69469151 29.61960396 45.33604351 33.49462414 50.234375 39.4921875 C55.71685819 47.27925433 56.35060707 54.75642247 56.4375 64.0625 C56.4478125 64.98442139 56.458125 65.90634277 56.46875 66.85620117 C56.32849832 77.79290991 53.35441201 86.7811966 46 95 C39.92507316 100.11350364 33.35019887 103.60173612 25.21875 103.3828125 C19.38794168 102.37679275 14.36899084 99.4667759 10.375 95.1875 C9.694375 94.1046875 9.694375 94.1046875 9 93 C8.67 95.97 8.34 98.94 8 102 C5.36 102 2.72 102 0 102 C0 68.34 0 34.68 0 0 Z " fill="#EDEAFB" transform="translate(1445,930)"/>
<path d="M0 0 C8.20715993 4.69544246 12.57197931 11.81330268 15.15991211 20.79370117 C18.12235805 34.44894413 15.79797753 48.99261285 8.3515625 60.67578125 C3.13583436 67.5081491 -4.05225383 70.96936684 -12.44140625 72.25390625 C-17.80599032 72.57935068 -22.05268777 70.94845203 -26.375 67.9375 C-28.025 66.2875 -29.675 64.6375 -31.375 62.9375 C-31.705 74.1575 -32.035 85.3775 -32.375 96.9375 C-35.015 96.9375 -37.655 96.9375 -40.375 96.9375 C-40.375 64.5975 -40.375 32.2575 -40.375 -1.0625 C-37.735 -1.0625 -35.095 -1.0625 -32.375 -1.0625 C-32.045 2.2375 -31.715 5.5375 -31.375 8.9375 C-30.55 7.865 -29.725 6.7925 -28.875 5.6875 C-21.27412792 -3.02698822 -10.57533343 -4.80986551 0 0 Z " fill="#EEEBFC" transform="translate(859.375,961.0625)"/>
<path d="M0 0 C6.91420537 7.52428231 7.8317081 14.46669393 7.61328125 24.44140625 C7.60620651 25.67165024 7.59913177 26.90189423 7.59184265 28.16941833 C7.56400987 32.07191561 7.50128666 35.97294144 7.4375 39.875 C7.40956353 42.53188003 7.3895926 45.18874625 7.36914062 47.84570312 C7.31421873 54.33519636 7.22801855 60.8235993 7.125 67.3125 C0.525 67.3125 -6.075 67.3125 -12.875 67.3125 C-13.205 63.6825 -13.535 60.0525 -13.875 56.3125 C-14.431875 57.22 -14.98875 58.1275 -15.5625 59.0625 C-18.95805427 63.83463033 -22.3717514 66.41621932 -27.875 68.3125 C-35.90482001 69.48428633 -42.18892901 67.84458536 -48.875 63.3125 C-53.60480162 58.70094342 -54.96431611 53.78483292 -55.1875 47.3125 C-55.02338382 41.22196621 -53.25548395 37.41041259 -48.875 33.1875 C-39.07549897 25.38873043 -25.00002652 24.08968175 -12.875 24.3125 C-12.98958693 22.87413249 -13.11709116 21.43679034 -13.25 20 C-13.35441406 18.79923828 -13.35441406 18.79923828 -13.4609375 17.57421875 C-13.77064426 15.04025559 -13.77064426 15.04025559 -15.875 12.3125 C-20.21453188 10.86598937 -24.34462849 10.65893821 -28.875 11.3125 C-33.03962971 14.76609537 -32.94698625 16.74441751 -33.875 22.3125 C-40.145 22.3125 -46.415 22.3125 -52.875 22.3125 C-53.37289911 14.34611418 -53.16008388 9.45273007 -47.875 3.3125 C-35.30437249 -9.55046768 -14.69357843 -8.62449169 0 0 Z " fill="#370367" transform="translate(423.875,964.6875)"/>
<path d="M0 0 C6.41645211 5.27574951 10.01940347 11.24356562 11.8125 19.3125 C11.8125 24.9225 11.8125 30.5325 11.8125 36.3125 C-3.3675 36.3125 -18.5475 36.3125 -34.1875 36.3125 C-33.5275 38.9525 -32.8675 41.5925 -32.1875 44.3125 C-31.919375 45.42625 -31.65125 46.54 -31.375 47.6875 C-30.41675632 50.42255306 -30.41675632 50.42255306 -28.125 51.6875 C-22.58046412 52.86718849 -16.14809022 53.46923923 -11.1875 50.3125 C-10.5275 48.6625 -9.8675 47.0125 -9.1875 45.3125 C-2.5875 45.3125 4.0125 45.3125 10.8125 45.3125 C9.633146 53.567978 7.58917828 58.33850602 1.125 63.625 C-7.80340474 69.71556606 -17.62314624 70.28715406 -28.1875 69.3125 C-36.43509821 67.65463892 -42.73749787 63.70366716 -48.1875 57.3125 C-55.17647453 46.47791748 -55.36929932 33.8512889 -54.1875 21.3125 C-52.11063666 12.7633427 -47.97811642 5.37626632 -40.5 0.59375 C-27.53937679 -6.71383543 -13.19817778 -6.98727059 0 0 Z " fill="#360367" transform="translate(1646.1875,963.6875)"/>
<path d="M0 0 C9.99090294 10.84726605 10.1875 20.65732792 10.1875 35.375 C-4.9925 35.375 -20.1725 35.375 -35.8125 35.375 C-34.25962923 46.9465204 -34.25962923 46.9465204 -28.8125 50.375 C-24.75836996 51.72637668 -21.04668885 52.05841294 -16.8125 51.375 C-14.05680553 49.19340855 -12.37661253 47.50322506 -10.8125 44.375 C-4.5425 44.375 1.7275 44.375 8.1875 44.375 C7.20368292 52.24553665 6.32595678 55.73023825 1.1875 61.375 C-7.7635838 68.29403663 -18.83875047 69.40828512 -29.8125 68.375 C-39.22275169 66.32609253 -46.1660234 61.52998688 -51.625 53.625 C-57.65210493 42.97575716 -58.76612997 29.7830897 -55.6875 18 C-52.63323588 9.40809813 -47.07791178 1.79615632 -38.98828125 -2.62109375 C-26.35201593 -8.3498995 -11.77984382 -6.80613199 0 0 Z " fill="#360367" transform="translate(729.8125,964.625)"/>
<path d="M0 0 C6.31619824 5.22755269 9.55513138 10.41193178 11.52734375 18.30078125 C11.52734375 24.24078125 11.52734375 30.18078125 11.52734375 36.30078125 C-3.65265625 36.30078125 -18.83265625 36.30078125 -34.47265625 36.30078125 C-32.25828694 45.04522369 -32.25828694 45.04522369 -27.47265625 51.30078125 C-24.907009 52.58360488 -22.96232556 52.50470078 -20.09765625 52.55078125 C-18.66292969 52.58945312 -18.66292969 52.58945312 -17.19921875 52.62890625 C-14.00580691 52.24459881 -12.75624273 51.53406847 -10.47265625 49.30078125 C-9.81265625 47.98078125 -9.15265625 46.66078125 -8.47265625 45.30078125 C-2.20265625 45.30078125 4.06734375 45.30078125 10.52734375 45.30078125 C10.52734375 52.63860915 8.70851234 55.61197938 4.05859375 61.00390625 C-2.47744465 67.34770822 -11.19376344 69.49678416 -20.09765625 69.73828125 C-29.79868707 69.37941257 -38.08192768 66.75704989 -45.47265625 60.30078125 C-53.80256505 51.13424405 -55.27425753 39.16176305 -54.80859375 27.19921875 C-53.85364704 16.11739525 -49.72505561 8.71109904 -41.47265625 1.30078125 C-30.54717327 -7.14581063 -11.38659913 -7.82491409 0 0 Z " fill="#350266" transform="translate(577.47265625,963.69921875)"/>
<path d="M0 0 C4.45798812 3.17012489 6.76783263 7.7817826 8.20703125 12.9375 C8.20703125 14.9175 8.20703125 16.8975 8.20703125 18.9375 C1.93703125 18.9375 -4.33296875 18.9375 -10.79296875 18.9375 C-12.11296875 16.2975 -13.43296875 13.6575 -14.79296875 10.9375 C-16.97880216 9.71194002 -16.97880216 9.71194002 -19.35546875 9.8125 C-20.50208984 9.74675781 -20.50208984 9.74675781 -21.671875 9.6796875 C-24.09319602 9.8124686 -24.09319602 9.8124686 -26.79296875 11.9375 C-27.37639228 15.39519191 -27.37639228 15.39519191 -26.79296875 18.9375 C-24.14805236 21.40904024 -21.56100047 22.52471256 -18.125 23.55078125 C-17.23103516 23.82986328 -16.33707031 24.10894531 -15.41601562 24.39648438 C-13.56345053 24.95907711 -11.70930511 25.51649579 -9.85351562 26.06835938 C-2.5272348 28.3706051 4.42268574 31.39378753 9.26953125 37.5625 C10.89456753 43.41263061 11.52181014 49.59374135 9.2578125 55.3515625 C5.2518129 62.09983944 -0.00645766 65.65164545 -7.359375 68.17578125 C-16.58188303 70.22173013 -29.42806736 70.92972658 -37.79296875 65.9375 C-44.1046171 61.51629705 -47.96753844 57.48261195 -49.79296875 49.9375 C-49.79296875 47.9575 -49.79296875 45.9775 -49.79296875 43.9375 C-43.19296875 43.9375 -36.59296875 43.9375 -29.79296875 43.9375 C-28.80296875 46.2475 -27.81296875 48.5575 -26.79296875 50.9375 C-24.96589812 53.18344496 -24.96589812 53.18344496 -22.296875 53.203125 C-21.32621094 53.19796875 -20.35554688 53.1928125 -19.35546875 53.1875 C-17.90333984 53.19523438 -17.90333984 53.19523438 -16.421875 53.203125 C-13.56150762 53.12136997 -13.56150762 53.12136997 -10.79296875 50.9375 C-10.54275305 47.85384129 -10.54275305 47.85384129 -10.79296875 44.9375 C-16.37421186 41.92327095 -22.12451037 40.12293569 -28.16015625 38.27539062 C-34.552695 36.2360201 -39.77393115 33.6130878 -44.10546875 28.3125 C-44.59660156 27.72210937 -45.08773438 27.13171875 -45.59375 26.5234375 C-49.32991551 21.58244989 -48.27621918 14.83047046 -47.79296875 8.9375 C-44.59762058 2.07341874 -38.86949097 -1.68033892 -31.93359375 -4.296875 C-20.81890934 -7.00642493 -9.82879859 -5.82447324 0 0 Z " fill="#370467" transform="translate(349.79296875,964.0625)"/>
<path d="M0 0 C7.26 0 14.52 0 22 0 C23.71225178 6.78021127 25.42236126 13.56088717 27.12695312 20.34301758 C27.70771339 22.65095496 28.28973924 24.95857426 28.87304688 27.26586914 C29.71034866 30.57876473 30.54312042 33.89277056 31.375 37.20703125 C31.63748535 38.2414888 31.8999707 39.27594635 32.17041016 40.3417511 C32.41065918 41.3025206 32.6509082 42.2632901 32.8984375 43.25317383 C33.11161621 44.09922684 33.32479492 44.94527985 33.54443359 45.81697083 C34 48 34 48 34 51 C34.66 51 35.32 51 36 51 C36.12737549 49.93712769 36.12737549 49.93712769 36.25732422 48.8527832 C37.67613159 38.39051407 40.37483839 28.36424626 43.125 18.1875 C43.59828124 16.4161825 44.07094194 14.64469907 44.54296875 12.87304688 C45.68704858 8.57973678 46.84373747 4.29011797 48 0 C55.26 0 62.52 0 70 0 C69.10646062 3.57415753 68.04641047 6.98776227 66.8828125 10.48095703 C66.66969421 11.12206421 66.45657593 11.76317139 66.23699951 12.42370605 C65.53450487 14.53557938 64.82982652 16.64671639 64.125 18.7578125 C63.63549162 20.22701136 63.14607231 21.69623989 62.65673828 23.16549683 C61.6321605 26.24070307 60.60650032 29.31554562 59.58007812 32.39013672 C58.26319919 36.33506745 56.9490229 40.28089228 55.63565063 44.22699165 C54.62617667 47.25902244 53.61527756 50.29057656 52.60394287 53.32198715 C52.11867195 54.77713201 51.63384804 56.23242601 51.1494751 57.68787003 C50.47349463 59.71834425 49.795601 61.74816965 49.1171875 63.77783203 C48.73159668 64.9338089 48.34600586 66.08978577 47.94873047 67.28079224 C47 70 47 70 46 72 C38.74 72 31.48 72 24 72 C22.85402344 68.62265625 21.70804688 65.2453125 20.52734375 61.765625 C19.39223276 58.42244981 18.2567998 55.07938414 17.12133789 51.73632812 C16.34431018 49.44803039 15.56760677 47.15962251 14.79125977 44.87109375 C13.662517 41.54396577 12.53273757 38.21719238 11.40234375 34.890625 C11.03249359 33.80172974 10.66264343 32.71283447 10.28158569 31.59094238 C7.59162315 23.69001389 4.84835349 15.80883006 2.03416443 7.95123291 C0 2.21617389 0 2.21617389 0 0 Z " fill="#360367" transform="translate(1662,960)"/>
<path d="M0 0 C9.15521776 4.73917155 12.84184376 12.58021877 15.9921875 22.03125 C15.9921875 26.98125 15.9921875 31.93125 15.9921875 37.03125 C-1.1678125 37.03125 -18.3278125 37.03125 -36.0078125 37.03125 C-33.11616425 50.93701886 -33.11616425 50.93701886 -24.3828125 61.03125 C-17.44400347 63.9528538 -8.91068234 64.30146545 -1.640625 62.41796875 C2.00643448 60.64139686 3.51243902 58.41455975 4.9296875 54.78125 C5.2803125 53.54375 5.6309375 52.30625 5.9921875 51.03125 C8.6321875 51.03125 11.2721875 51.03125 13.9921875 51.03125 C14.62237516 56.07275131 13.36477936 59.06013656 10.61328125 63.13671875 C5.85555936 68.69694795 -1.12177159 71.63527901 -8.3046875 72.3671875 C-18.52564221 72.48280916 -26.84100148 70.95726788 -34.48046875 63.78515625 C-42.61378461 54.44536387 -44.70289303 42.9556037 -44.28515625 30.93359375 C-43.58605382 21.09692716 -40.71139624 13.39230061 -34.0078125 6.03125 C-24.09005392 -2.17127978 -12.29133791 -4.8625073 0 0 Z " fill="#390769" transform="translate(1186.0078125,960.96875)"/>
<path d="M0 0 C7.24450372 4.26567818 12.15285657 9.94567281 15.125 17.8125 C16.625 24.0625 16.625 24.0625 16.625 37.0625 C-0.535 37.0625 -17.695 37.0625 -35.375 37.0625 C-32.85628762 51.4417481 -32.85628762 51.4417481 -23.375 61.0625 C-19.6362597 63.50904895 -15.83081918 63.42955354 -11.5 63.4375 C-10.45779297 63.47423828 -10.45779297 63.47423828 -9.39453125 63.51171875 C-4.2223007 63.54094039 -1.34268283 62.31635684 2.625 59.0625 C4.52299927 56.37912172 5.58592816 54.17971553 6.625 51.0625 C9.265 51.0625 11.905 51.0625 14.625 51.0625 C14.51194944 57.39333161 13.1072761 60.70200716 8.734375 65.30078125 C1.16845911 71.61972211 -7.8582621 72.72535737 -17.375 72.0625 C-26.24986304 70.23374034 -33.307614 65.5850702 -38.375 58.0625 C-44.0107502 46.77310833 -45.51351249 32.80834481 -42.50390625 20.5 C-39.08769345 11.71865301 -33.69643493 4.66584698 -25.375 0.0625 C-17.29590828 -3.08000385 -8.02368017 -3.60196168 0 0 Z " fill="#390769" transform="translate(1411.375,960.9375)"/>
<path d="M0 0 C4.16813009 3.58575662 7.73862578 8.0843227 8.24050903 13.68292236 C8.2338472 15.21514435 8.2338472 15.21514435 8.22705078 16.77832031 C8.22689972 17.9392218 8.22674866 19.10012329 8.22659302 20.29620361 C8.21627045 21.54423767 8.20594788 22.79227173 8.1953125 24.078125 C8.1924826 25.35983582 8.18965271 26.64154663 8.18673706 27.96209717 C8.17911788 31.36189639 8.15948434 34.76152346 8.1373291 38.16125488 C8.11683358 41.63352124 8.10772744 45.10581553 8.09765625 48.578125 C8.07623666 55.38548717 8.04212156 62.19273531 8 69 C5.69 69 3.38 69 1 69 C0.67 65.04 0.34 61.08 0 57 C-0.61875 58.051875 -1.2375 59.10375 -1.875 60.1875 C-5.81571254 65.7541799 -12.40393137 68.69900027 -19 70 C-26.69485179 70.9449818 -32.62201439 69.45057238 -39 65 C-43.48124147 59.73454127 -45.52477318 53.96757162 -45.3125 47.015625 C-44.53092838 41.97448802 -41.75024696 38.7335748 -38.1875 35.25 C-29.07743951 28.81936906 -19.28996524 27.66798305 -8.4375 27.875 C-7.52419922 27.88402344 -6.61089844 27.89304687 -5.66992188 27.90234375 C-3.44632681 27.92562747 -1.22331323 27.9583229 1 28 C0.87248733 16.54738899 0.87248733 16.54738899 -4.9375 7.1875 C-10.89000828 3.76029826 -18.37522178 4.44981933 -25 5 C-28.53316406 6.10878157 -31.13653666 7.59463898 -33.1328125 10.84375 C-34.08203105 13.2039691 -34.40182577 15.22069206 -34.625 17.75 C-34.74875 19.1525 -34.8725 20.555 -35 22 C-37.97 22 -40.94 22 -44 22 C-44.65433092 14.93322604 -43.16479593 9.80547312 -39 4 C-28.4970723 -5.87315834 -12.41498372 -6.68499124 0 0 Z " fill="#390769" transform="translate(936,963)"/>
<path d="M0 0 C6.93 0 13.86 0 21 0 C21 33.99 21 67.98 21 103 C14.07 103 7.14 103 0 103 C0 69.01 0 35.02 0 0 Z " fill="#390769" transform="translate(640,929)"/>
<path d="M0 0 C2.64 0 5.28 0 8 0 C11.22456625 7.44895742 13.47781314 14.96078127 15.5 22.8125 C17.5669869 30.67651565 19.68771063 38.48027363 22.16015625 46.2265625 C23.40996134 50.35382583 24.40324757 54.53676616 25.38671875 58.734375 C25.78497004 60.95089856 25.78497004 60.95089856 27 62 C27.89804392 58.43805367 28.79332673 54.87541993 29.6875 51.3125 C29.96005615 50.22702881 30.2326123 49.14155762 30.51342773 48.02319336 C32.04171208 41.91228186 33.52848947 35.79450639 34.95751953 29.65966797 C37.2876798 19.6563407 39.97681868 9.81569085 43 0 C46.3 0 49.6 0 53 0 C56.79594692 12.54895394 60.13028568 25.20113008 63.25857544 37.93081665 C63.66840627 39.597389 64.0805647 41.26339075 64.49508667 42.92880249 C65.08488452 45.30364964 65.66494638 47.68066719 66.2421875 50.05859375 C66.42003281 50.77041809 66.59787811 51.48224243 66.78111267 52.21563721 C67.74018528 56.2254047 68.18080147 59.87973548 68 64 C68.66 64 69.32 64 70 64 C70.18175781 62.26943359 70.18175781 62.26943359 70.3671875 60.50390625 C70.91136482 56.18177315 71.91738415 52.11645489 73.125 47.9375 C73.34019287 47.17655029 73.55538574 46.41560059 73.77709961 45.6315918 C75.90441988 38.18037067 78.18915322 30.77671061 80.4675293 23.37060547 C82.83945899 15.62662512 85.00361759 7.84913083 87 0 C89.97 0 92.94 0 96 0 C94.4849581 7.71294061 92.16413995 15.12288336 89.76806641 22.59863281 C88.93708318 25.19671007 88.11448518 27.79735189 87.29296875 30.3984375 C84.66699087 38.70096062 82.02658264 46.99645516 79.25 55.25 C77.3825311 60.8031006 75.64371966 66.37674853 74 72 C70.37 72 66.74 72 63 72 C62.80889648 71.2251123 62.61779297 70.45022461 62.42089844 69.65185547 C58.3341036 52.82225645 58.3341036 52.82225645 53.75 36.125 C51.24327656 27.58917448 48.73032024 18.95336798 49 10 C48.34 10 47.68 10 47 10 C46.9175 11.27875 46.835 12.5575 46.75 13.875 C44.72514976 33.65196192 37.95216685 53.12812982 32 72 C28.7 72 25.4 72 22 72 C20.37845114 67.18570004 18.76126848 62.36996078 17.14770508 57.55297852 C16.60098172 55.92271691 16.05317227 54.29281905 15.50415039 52.66333008 C12.15542183 42.72150441 8.98318355 32.7546628 6.06958008 22.67651367 C4.64915907 17.79403937 3.11132779 12.95439495 1.53320312 8.12109375 C0.62653988 5.28309389 0 3.00202332 0 0 Z " fill="#3B096B" transform="translate(1264,960)"/>
<path d="M0 0 C6.6 0 13.2 0 20 0 C20 33.66 20 67.32 20 102 C13.4 102 6.8 102 0 102 C0 68.34 0 34.68 0 0 Z " fill="#340065" transform="translate(602,930)"/>
<path d="M0 0 C2.64 0 5.28 0 8 0 C8.33 13.53 8.66 27.06 9 41 C10.65 38.69 12.3 36.38 14 34 C19.57736655 29.04355121 25.65079179 28.25556008 32.921875 28.59375 C40.69469151 29.61960396 45.33604351 33.49462414 50.234375 39.4921875 C55.71685819 47.27925433 56.35060707 54.75642247 56.4375 64.0625 C56.4478125 64.98442139 56.458125 65.90634277 56.46875 66.85620117 C56.32849832 77.79290991 53.35441201 86.7811966 46 95 C39.92507316 100.11350364 33.35019887 103.60173612 25.21875 103.3828125 C19.38794168 102.37679275 14.36899084 99.4667759 10.375 95.1875 C9.694375 94.1046875 9.694375 94.1046875 9 93 C8.67 95.97 8.34 98.94 8 102 C5.36 102 2.72 102 0 102 C0 68.34 0 34.68 0 0 Z M10.5625 44.6875 C6.61143169 50.5350811 7.54276103 57.71517409 7.43017578 64.57446289 C7.39357089 66.30801201 7.33905303 68.04128092 7.26611328 69.77368164 C6.50173987 79.71938389 6.50173987 79.71938389 9.90722656 88.66650391 C12.2126073 90.49029732 14.33103641 91.78371756 17 93 C17.70979004 93.37358643 18.41958008 93.74717285 19.15087891 94.13208008 C23.45521031 96.15239935 28.73403453 95.63032138 33.21875 94.3828125 C39.31973755 91.73122945 43.25043934 87.1416683 45.8203125 81.05810547 C47.88661011 75.45780242 48.46220394 70.43955751 48.375 64.5 C48.38660156 63.70980469 48.39820313 62.91960938 48.41015625 62.10546875 C48.37573226 55.09444905 47.03328246 48.29039418 42.6875 42.625 C37.89617589 37.94510203 34.25047528 36.79072524 27.625 36.5 C19.89409617 36.68511856 15.67066506 39.05542057 10.5625 44.6875 Z " fill="#3B096B" transform="translate(1445,930)"/>
<path d="M0 0 C8.20715993 4.69544246 12.57197931 11.81330268 15.15991211 20.79370117 C18.12235805 34.44894413 15.79797753 48.99261285 8.3515625 60.67578125 C3.13583436 67.5081491 -4.05225383 70.96936684 -12.44140625 72.25390625 C-17.80599032 72.57935068 -22.05268777 70.94845203 -26.375 67.9375 C-28.025 66.2875 -29.675 64.6375 -31.375 62.9375 C-31.705 74.1575 -32.035 85.3775 -32.375 96.9375 C-35.015 96.9375 -37.655 96.9375 -40.375 96.9375 C-40.375 64.5975 -40.375 32.2575 -40.375 -1.0625 C-37.735 -1.0625 -35.095 -1.0625 -32.375 -1.0625 C-32.045 2.2375 -31.715 5.5375 -31.375 8.9375 C-30.55 7.865 -29.725 6.7925 -28.875 5.6875 C-21.27412792 -3.02698822 -10.57533343 -4.80986551 0 0 Z M-31.27563477 15.12399292 C-33.28556328 18.43956037 -33.12802993 21.83580338 -33.109375 25.625 C-33.11890198 26.44572998 -33.12842896 27.26645996 -33.13824463 28.11206055 C-33.15036148 29.8399641 -33.14961832 31.56800055 -33.13671875 33.29589844 C-33.12502707 35.93139885 -33.17733187 38.56051003 -33.234375 41.1953125 C-33.23826001 42.88020385 -33.23838586 44.56510894 -33.234375 46.25 C-33.25481873 47.03141357 -33.27526245 47.81282715 -33.29632568 48.61791992 C-33.22526993 51.990822 -33.07337548 54.10589994 -30.85778809 56.74414062 C-24.92274678 61.90863501 -19.73069408 64.49717911 -11.76953125 64.22265625 C-5.8861305 63.52202288 -2.06111069 60.37973596 1.625 55.9375 C4.93035252 50.45340807 7.30167448 45.40401045 7.625 38.9375 C7.7178125 37.37515625 7.7178125 37.37515625 7.8125 35.78125 C8.13760328 26.4345308 7.22830623 18.37233844 1.1875 10.9375 C-4.73435444 6.31556483 -8.64725095 5.33706443 -16.14453125 5.5234375 C-22.83216046 6.38061851 -27.06533142 10.00151492 -31.27563477 15.12399292 Z " fill="#3A0769" transform="translate(859.375,961.0625)"/>
<path d="M0 0 C4.57150259 2.09058584 7.2402674 4.8604011 10 9 C10.25543363 11.5191104 10.3996402 13.92559884 10.44140625 16.44921875 C10.45517807 17.18066605 10.46894989 17.91211334 10.48313904 18.66572571 C10.50640258 20.21481789 10.52367238 21.76400997 10.53540039 23.31323242 C10.56222268 25.66320345 10.6370901 28.00859322 10.71289062 30.35742188 C10.93133255 42.97082248 10.93133255 42.97082248 6.640625 47.95703125 C1.34445841 52.82997863 -3.30223229 54.59565588 -10.47265625 54.34765625 C-16.10000031 53.57357028 -19.80100561 51.17235007 -23.8125 47.25 C-28.33627274 40.52896622 -29.53933458 34.49605035 -29.4375 26.5625 C-29.42396484 25.30518066 -29.42396484 25.30518066 -29.41015625 24.02246094 C-29.20416651 16.68979823 -28.24393367 11.35933052 -23.0234375 5.953125 C-15.83948145 -0.57774414 -9.50324658 -1.05700374 0 0 Z " fill="#EEEBFC" transform="translate(1075,967)"/>
<path d="M0 0 C6.93 0 13.86 0 21 0 C21 23.76 21 47.52 21 72 C14.07 72 7.14 72 0 72 C0 48.24 0 24.48 0 0 Z " fill="#3B086A" transform="translate(267,960)"/>
<path d="M0 0 C5.64795244 3.28304624 9.62208071 7.43851344 11.4375 13.875 C11.5625 16.6875 11.5625 16.6875 11.4375 18.875 C8.4675 18.875 5.4975 18.875 2.4375 18.875 C2.19 17.8025 1.9425 16.73 1.6875 15.625 C0.42530451 11.83841353 -0.48089499 10.30293122 -3.5625 7.875 C-9.37965927 5.93594691 -17.73126288 5.39276479 -23.375 8.1875 C-26.36234006 11.85766065 -26.35634111 14.61104221 -26.06640625 19.25 C-25.69269155 22.06989029 -25.69269155 22.06989029 -23.6875 24.8125 C-17.57520531 28.84661449 -10.92627455 30.78559323 -3.9375 32.8125 C2.80115021 34.8602877 8.89335814 37.06578399 12.9375 43.125 C15.3140781 48.01608261 15.40298604 52.95272673 13.70703125 58.0859375 C10.46505529 65.20505206 5.68730902 68.15632162 -1.5625 70.875 C-10.13167076 72.94193566 -19.24547571 72.9799818 -27.3359375 69.27734375 C-32.5266631 66.00809728 -37.05175687 60.91797252 -38.5625 54.875 C-38.5625 53.555 -38.5625 52.235 -38.5625 50.875 C-35.5925 50.875 -32.6225 50.875 -29.5625 50.875 C-28.9765625 52.828125 -28.390625 54.78125 -27.8046875 56.734375 C-25.92031734 59.9816544 -23.8940711 61.16766424 -20.5625 62.875 C-17.5415977 63.42425496 -14.625769 63.43565879 -11.5625 63.375 C-10.78132812 63.39046875 -10.00015625 63.4059375 -9.1953125 63.421875 C-3.87431199 63.38604335 -0.77020822 62.39895563 3.4375 58.875 C4.6523059 56.44538821 4.67357267 54.71115884 4.75 52 C4.78738281 51.13632812 4.82476563 50.27265625 4.86328125 49.3828125 C4.26986225 45.88762903 3.30523493 44.96980791 0.4375 42.875 C-2.54135736 41.66450103 -5.59371704 40.80386696 -8.6875 39.9375 C-27.82893817 34.22112609 -27.82893817 34.22112609 -33.5625 26.875 C-35.84761142 22.0871475 -36.50715651 17.08778637 -35.5625 11.875 C-32.92686042 5.49343173 -28.77860905 1.41870978 -22.46875 -1.30859375 C-14.87211536 -3.44259461 -7.20862573 -3.30887739 0 0 Z " fill="#3B096B" transform="translate(787.5625,961.125)"/>
<path d="M0 0 C4.55914534 2.64500035 8.14390519 6.38379078 10.484375 11.125 C11.36657928 14.74898874 11.60630592 18.10960075 11.59790039 21.83325195 C11.59782486 22.95403641 11.59774933 24.07482086 11.59767151 25.22956848 C11.59251022 26.4286937 11.58734894 27.62781891 11.58203125 28.86328125 C11.5806163 30.09918503 11.57920135 31.33508881 11.57774353 32.60844421 C11.57310118 35.88158345 11.56412811 39.15467287 11.55303955 42.42779541 C11.54277904 45.77282248 11.53832131 49.11785173 11.53320312 52.46289062 C11.52218407 59.0169465 11.50545336 65.57096918 11.484375 72.125 C8.844375 72.125 6.204375 72.125 3.484375 72.125 C3.47850876 71.4367514 3.47264252 70.74850281 3.46659851 70.03939819 C3.40261016 62.86893214 3.31817568 55.69891263 3.22192383 48.52880859 C3.18705498 45.85363786 3.16065619 43.17876362 3.13793945 40.50341797 C3.10436233 36.65562212 3.05204221 32.80846511 2.99609375 28.9609375 C2.98970383 27.76697357 2.9833139 26.57300964 2.97673035 25.34286499 C2.89130922 17.297228 2.89130922 17.297228 -0.515625 10.125 C-5.89752186 6.941861 -12.48058337 7.52301984 -18.515625 8.125 C-24.68860926 10.93090194 -29.84292895 16.86742495 -32.515625 23.125 C-32.83942349 25.50549213 -32.83942349 25.50549213 -32.83447266 28.07714844 C-32.85434235 29.05786316 -32.87421204 30.03857788 -32.89468384 31.04901123 C-32.91201065 32.6257663 -32.91201065 32.6257663 -32.9296875 34.234375 C-32.94905365 35.31632141 -32.9684198 36.39826782 -32.9883728 37.51300049 C-33.04812737 40.96692026 -33.09453797 44.42087344 -33.140625 47.875 C-33.17880853 50.21746241 -33.21786048 52.55991084 -33.2578125 54.90234375 C-33.35382556 60.64310499 -33.43888527 66.38395053 -33.515625 72.125 C-36.155625 72.125 -38.795625 72.125 -41.515625 72.125 C-41.515625 48.365 -41.515625 24.605 -41.515625 0.125 C-39.205625 0.125 -36.895625 0.125 -34.515625 0.125 C-34.185625 5.075 -33.855625 10.025 -33.515625 15.125 C-33.020625 13.92875 -32.525625 12.7325 -32.015625 11.5 C-29.20297299 5.85467711 -24.76753918 2.71276347 -19.1875 -0.01171875 C-13.22222982 -1.93909406 -5.93893872 -2.06571781 0 0 Z " fill="#3C0A6B" transform="translate(1008.515625,959.875)"/>
<path d="M0 0 C3.75853108 1.63414395 5.87689513 3.51988964 8 7 C8.65837631 11.64231853 8.50940566 16.31598151 8.5 21 C8.52835938 22.28390625 8.55671875 23.5678125 8.5859375 24.890625 C8.58980469 26.73914063 8.58980469 26.73914063 8.59375 28.625 C8.60083984 29.75164063 8.60792969 30.87828125 8.61523438 32.0390625 C8 35 8 35 5.58789062 37.3359375 C0.73057483 40.45928321 -3.28076706 40.75553615 -9 40 C-13.4293393 37.42292986 -15.95787063 34.51368294 -17.52734375 29.5703125 C-18.98309716 21.65390139 -19.61020613 12.56821915 -15.1875 5.51953125 C-10.82035242 -0.06869378 -6.83187459 -1.03099198 0 0 Z " fill="#ECE9FB" transform="translate(1551,976)"/>
<path d="M0 0 C3.87274115 3.22728429 6.31912291 6.92524009 7.25 11.875 C7.90283243 20.43714844 7.72701989 29.42006827 2.25 36.4375 C-2.18591527 39.6258141 -7.4969844 39.64577741 -12.75 38.875 C-15.57424288 36.68477082 -17.16508603 35.04482793 -18.75 31.875 C-19.04907141 27.25568733 -19.02810074 22.62784765 -19.0625 18 C-19.09150391 16.70707031 -19.12050781 15.41414062 -19.15039062 14.08203125 C-19.15876953 12.84066406 -19.16714844 11.59929688 -19.17578125 10.3203125 C-19.19036377 9.18094238 -19.20494629 8.04157227 -19.2199707 6.86767578 C-18.65086668 3.24373963 -17.58770608 2.11496164 -14.75 -0.125 C-10.16577338 -2.08966855 -4.54352027 -1.85871284 0 0 Z " fill="#ECE9FB" transform="translate(486.75,977.125)"/>
<path d="M0 0 C1.03228159 15.75185248 1.03228159 15.75185248 -2.5 20.6875 C-6.83822053 25.34516195 -12.79941558 29.69385571 -19.3046875 30.16796875 C-25.88040533 30.21793621 -29.74528196 30.00419382 -34.8125 25.5 C-37.51217582 22.00327703 -37.72590909 18.72321681 -37.47265625 14.3984375 C-36.72226124 10.59064794 -35.02494624 8.26870968 -32 6 C-22.72608772 0.06626799 -10.71131953 -0.36935585 0 0 Z " fill="#ECE9FA" transform="translate(937,996)"/>
<path d="M0 0 C4.96031512 2.84264213 8.27115605 6.89149302 10.40625 12.1640625 C10.82641602 14.99755859 10.82641602 14.99755859 11.03515625 17.9375 C11.14645874 19.40968994 11.14645874 19.40968994 11.26000977 20.91162109 C11.30826904 21.65492676 11.35652832 22.39823242 11.40625 23.1640625 C10.14441895 23.18911865 8.88258789 23.2141748 7.58251953 23.23999023 C2.91216431 23.33398356 -1.75803937 23.43422381 -6.42822266 23.53637695 C-8.45162416 23.57975645 -10.47506299 23.62142928 -12.49853516 23.66137695 C-15.40278384 23.71900658 -18.30684411 23.7827219 -21.2109375 23.84765625 C-22.11931366 23.86436874 -23.02768982 23.88108124 -23.96359253 23.89830017 C-24.80431305 23.91824539 -25.64503357 23.93819061 -26.51123047 23.95874023 C-27.62375687 23.98205666 -27.62375687 23.98205666 -28.75875854 24.00584412 C-30.69049104 24.05879746 -30.69049104 24.05879746 -32.59375 25.1640625 C-32.27224797 17.3194129 -31.27028673 10.9206822 -25.62109375 5.1484375 C-18.2317764 -1.44964623 -9.68493054 -3.12134809 0 0 Z " fill="#EDEAFB" transform="translate(1182.59375,967.8359375)"/>
<path d="M0 0 C4.68584876 2.8680626 7.75026826 7.49510466 9.5 12.625 C9.57010769 14.35336707 9.58762491 16.08433168 9.56445312 17.81396484 C9.55514771 18.71480804 9.54584229 19.61565125 9.53625488 20.54379272 C9.51830872 21.57399033 9.51830872 21.57399033 9.5 22.625 C8.26846191 22.65005615 7.03692383 22.6751123 5.76806641 22.70092773 C1.20952507 22.79492612 -3.34886118 22.89516515 -7.90722656 22.99731445 C-9.88212462 23.04069203 -11.85706087 23.082365 -13.83203125 23.12231445 C-16.6667839 23.17994873 -19.50134378 23.2436627 -22.3359375 23.30859375 C-23.66569107 23.33366249 -23.66569107 23.33366249 -25.02230835 23.35923767 C-29.39925155 23.33585211 -29.39925155 23.33585211 -33.5 24.625 C-33.34027189 16.85640572 -32.19741495 10.94085203 -27.5 4.625 C-20.11045008 -2.40408407 -9.56659084 -3.9304598 0 0 Z " fill="#EDEAFC" transform="translate(1409.5,968.375)"/>
<path d="M0 0 C2.64 0 5.28 0 8 0 C8 33.66 8 67.32 8 102 C5.36 102 2.72 102 0 102 C0 68.34 0 34.68 0 0 Z " fill="#3D0B6C" transform="translate(1116,930)"/>
<path d="M0 0 C1.21236328 0.01353516 1.21236328 0.01353516 2.44921875 0.02734375 C3.37154297 0.04474609 3.37154297 0.04474609 4.3125 0.0625 C4.3125 2.7025 4.3125 5.3425 4.3125 8.0625 C3.755625 8.07667969 3.19875 8.09085938 2.625 8.10546875 C-4.69127923 8.5627362 -9.60547544 10.65640372 -14.56544495 16.13790894 C-19.55469835 22.7200901 -20.70390516 27.59478661 -20.58984375 35.7578125 C-20.60828087 37.36799759 -20.60828087 37.36799759 -20.62709045 39.01071167 C-20.65861482 42.4036862 -20.64260175 45.79446121 -20.625 49.1875 C-20.63812098 51.5026242 -20.6543668 53.81773292 -20.67382812 56.1328125 C-20.71450439 61.77636652 -20.71626989 67.41889519 -20.6875 73.0625 C-22.9975 73.0625 -25.3075 73.0625 -27.6875 73.0625 C-27.6875 49.6325 -27.6875 26.2025 -27.6875 2.0625 C-25.7075 2.0625 -23.7275 2.0625 -21.6875 2.0625 C-21.3575 7.0125 -21.0275 11.9625 -20.6875 17.0625 C-20.130625 15.845625 -19.57375 14.62875 -19 13.375 C-15.10013508 5.57527017 -8.94001869 -0.12956549 0 0 Z " fill="#360367" transform="translate(1247.6875,958.9375)"/>
<path d="M0 0 C4.10746873 1.77367968 6.69875485 4.16459142 9 8 C9.61617063 12.85234374 9.53237687 14.95496392 7.3125 19.3125 C3.74159362 23.46247228 1.5392249 24.80454287 -3.9375 25.5 C-8.70314808 25.31982427 -10.76251637 23.39164952 -14 20 C-16.54641337 16.52761813 -16.43529792 13.20787993 -16 9 C-12.1162778 1.78737305 -8.35635845 -1.21759315 0 0 Z " fill="#380568" transform="translate(281,927)"/>
<path d="M0 0 C0.78520641 11.91768846 0.78520641 11.91768846 -2.3125 16.1875 C-7.62635222 19.7712608 -10.61838116 20.89849507 -17 20 C-19.5625 18.5 -19.5625 18.5 -21 16 C-21.67756685 11.25703204 -21.78119493 9.21219902 -19.1875 5.1875 C-13.46751638 1.26202104 -6.90610808 -0.23771024 0 0 Z " fill="#EBE8FA" transform="translate(411,999)"/>
<path d="M0 0 C3.54100534 2.02343162 5.73505537 4.09017116 7 8 C7.02742884 9.99981191 7.02996939 12.00022455 7 14 C6.2886792 14.01458252 5.5773584 14.02916504 4.84448242 14.04418945 C1.62493668 14.11861006 -1.59356518 14.21529 -4.8125 14.3125 C-5.93205078 14.33505859 -7.05160156 14.35761719 -8.20507812 14.38085938 C-9.27822266 14.41630859 -10.35136719 14.45175781 -11.45703125 14.48828125 C-12.44678955 14.51446533 -13.43654785 14.54064941 -14.45629883 14.56762695 C-17.32481958 15.05521216 -18.23094912 15.74871895 -20 18 C-19.72986927 11.92205857 -19.02699406 7.83239287 -15 3 C-10.49901359 -1.09981154 -5.80879591 -0.78427363 0 0 Z " fill="#E4DFF4" transform="translate(713,975)"/>
<path d="M0 0 C4.04475305 1.34825102 5.54218514 2.29801722 7.875 5.875 C8.96554095 8.90428043 9.09645487 10.83842378 9 14 C8.2886792 14.01458252 7.5773584 14.02916504 6.84448242 14.04418945 C3.62493668 14.11861006 0.40643482 14.21529 -2.8125 14.3125 C-3.93205078 14.33505859 -5.05160156 14.35761719 -6.20507812 14.38085938 C-7.27822266 14.41630859 -8.35136719 14.45175781 -9.45703125 14.48828125 C-10.44678955 14.51446533 -11.43654785 14.54064941 -12.45629883 14.56762695 C-15.32481958 15.05521216 -16.23094912 15.74871895 -18 18 C-16.88878548 7.07305724 -16.88878548 7.07305724 -12.4375 2.1875 C-8.54942555 -0.82599536 -4.71853722 -0.76105439 0 0 Z " fill="#E5E0F5" transform="translate(561,975)"/>
<path d="M0 0 C3.12177233 1.68287927 5.39137035 3.7827407 7 7 C7.04022391 9.3329866 7.04320247 11.66706666 7 14 C5.97845825 14.029729 5.97845825 14.029729 4.9362793 14.06005859 C1.85296083 14.15526983 -1.22967649 14.26496466 -4.3125 14.375 C-5.38435547 14.4059375 -6.45621094 14.436875 -7.56054688 14.46875 C-9.10258789 14.52675781 -9.10258789 14.52675781 -10.67578125 14.5859375 C-12.0975769 14.63306885 -12.0975769 14.63306885 -13.5480957 14.68115234 C-16.2530269 14.8489051 -16.2530269 14.8489051 -19 17 C-18.73129039 10.95403384 -18.07286979 6.77107604 -14 2 C-9.58735883 -0.7284988 -5.03753652 -0.80124597 0 0 Z " fill="#E6E1F5" transform="translate(1631,975)"/>
<path d="M0 0 C2.4375 1.5625 2.4375 1.5625 4 4 C4.80607605 8.04700038 4.68432164 10.97351754 2.375 14.4375 C-0.61178724 16.4024916 -2.40987366 17 -6 17 C-11.50649351 13.98701299 -11.50649351 13.98701299 -13 11 C-13.43023798 7.12785818 -13.31669086 5.47503629 -11.125 2.1875 C-7.38445041 -1.66306575 -5.14450674 -1.1530791 0 0 Z " fill="#E7E3F7" transform="translate(1000,454)"/>
<path d="M0 0 C2.02734375 0.671875 2.02734375 0.671875 4.08984375 2.296875 C5.4194066 5.66510088 5.46851707 8.07946366 5.02734375 11.671875 C3.52734375 14.609375 3.52734375 14.609375 1.02734375 16.671875 C-1.77507406 17.32653818 -4.16487896 17.28301338 -6.97265625 16.671875 C-10.26557469 14.56102985 -10.86041577 13.02840358 -12.03515625 9.296875 C-11.96955293 5.49188222 -11.3649575 3.50325327 -8.70703125 0.7109375 C-5.78382004 -1.0403557 -3.25289452 -0.62784653 0 0 Z " fill="#EAE6F9" transform="translate(1099.97265625,500.328125)"/>
<path d="M0 0 C3.69879153 1.16443437 5.24663599 1.8273867 7.375 5.0625 C8.09025283 9.43348953 7.88139423 11.31873347 5.375 15 C1.25887501 17.82983593 -0.70275886 17.69762789 -5.625 17.0625 C-8.41536118 14.96810303 -9.18152902 13.09553445 -9.6875 9.6875 C-9.89837731 7.05368541 -9.95252792 5.61126376 -8.58984375 3.328125 C-5.79353117 0.67349226 -3.80674114 0.06563347 0 0 Z " fill="#E8E4F8" transform="translate(895.625,499.9375)"/>
</svg>
